<svg width="11" height="12" viewBox="0 0 11 12" fill="none" xmlns="http://www.w3.org/2000/svg">
<g clip-path="url(#clip0_20401_6071)">
<path d="M5.51172 2.125C5.51172 2.125 8.94957 2.12422 9.80957 2.35547C10.0431 2.41917 10.2561 2.54313 10.4268 2.71484C10.5974 2.88661 10.7191 3.10094 10.7812 3.33496C11.0112 4.19877 11.0117 6 11.0117 6C11.0117 6.02784 11.0094 7.80806 10.7812 8.66504C10.719 8.8988 10.5972 9.11255 10.4268 9.28418C10.2562 9.45587 10.0431 9.57984 9.80957 9.64355C8.94957 9.8748 5.51172 9.875 5.51172 9.875C5.51098 9.875 2.07378 9.87478 1.21387 9.64355C0.980367 9.57984 0.767279 9.45587 0.59668 9.28418C0.426204 9.11255 0.304397 8.8988 0.242188 8.66504C0.0139895 7.80806 0.0117328 6.02784 0.0117188 6C0.0117188 6 0.0122288 4.19877 0.242188 3.33496C0.304378 3.10094 0.426009 2.88661 0.59668 2.71484C0.767298 2.54313 0.980335 2.41917 1.21387 2.35547C2.07377 2.12424 5.51098 2.125 5.51172 2.125ZM4.38672 7.63574L7.26172 6L4.38672 4.36426V7.63574Z" fill="white"/>
</g>
<defs>
<clipPath id="clip0_20401_6071">
<rect width="11" height="11" fill="white" transform="translate(0 0.5)"/>
</clipPath>
</defs>
</svg>
