<svg width="11" height="12" viewBox="0 0 11 12" fill="none" xmlns="http://www.w3.org/2000/svg">
<g clip-path="url(#clip0_20401_6060)">
<path d="M11 6C11 2.96246 8.53754 0.5 5.5 0.5C2.46246 0.5 0 2.96246 0 6C0 8.57928 1.77584 10.7436 4.17142 11.3381V7.6808H3.03732V6H4.17142V5.27576C4.17142 3.40378 5.01864 2.5361 6.85652 2.5361C7.205 2.5361 7.80626 2.60452 8.05222 2.67272V4.19622C7.92242 4.18258 7.69692 4.17576 7.41686 4.17576C6.51508 4.17576 6.1666 4.51742 6.1666 5.40556V6H7.96312L7.65446 7.6808H6.1666V11.4597C8.88998 11.1308 11.0002 8.81204 11.0002 6H11Z" fill="white"/>
</g>
<defs>
<clipPath id="clip0_20401_6060">
<rect width="11" height="11" fill="white" transform="translate(0 0.5)"/>
</clipPath>
</defs>
</svg>
