<svg width="11" height="12" viewBox="0 0 11 12" fill="none" xmlns="http://www.w3.org/2000/svg">
<g clip-path="url(#clip0_20401_6063)">
<path d="M5.5 1.49043C6.96953 1.49043 7.14356 1.49687 7.72149 1.52266C8.2586 1.54629 8.54864 1.63652 8.74199 1.71172C8.99766 1.81055 9.18242 1.93086 9.37364 2.12207C9.56699 2.31543 9.68516 2.49805 9.78399 2.75371C9.85918 2.94707 9.94942 3.23926 9.97305 3.77422C9.99883 4.3543 10.0053 4.52832 10.0053 5.9957C10.0053 7.46523 9.99883 7.63926 9.97305 8.21719C9.94942 8.7543 9.85918 9.04433 9.78399 9.23769C9.68516 9.49336 9.56485 9.67812 9.37364 9.86933C9.18028 10.0627 8.99766 10.1809 8.74199 10.2797C8.54864 10.3549 8.25645 10.4451 7.72149 10.4687C7.14141 10.4945 6.96738 10.501 5.5 10.501C4.03047 10.501 3.85645 10.4945 3.27852 10.4687C2.74141 10.4451 2.45137 10.3549 2.25801 10.2797C2.00234 10.1809 1.81758 10.0605 1.62637 9.86933C1.43301 9.67597 1.31484 9.49336 1.21602 9.23769C1.14082 9.04433 1.05059 8.75215 1.02695 8.21719C1.00117 7.63711 0.994727 7.46308 0.994727 5.9957C0.994727 4.52617 1.00117 4.35215 1.02695 3.77422C1.05059 3.23711 1.14082 2.94707 1.21602 2.75371C1.31484 2.49805 1.43516 2.31328 1.62637 2.12207C1.81973 1.92871 2.00234 1.81055 2.25801 1.71172C2.45137 1.63652 2.74356 1.54629 3.27852 1.52266C3.85645 1.49687 4.03047 1.49043 5.5 1.49043ZM5.5 0.5C4.00684 0.5 3.81992 0.506445 3.2334 0.532227C2.64902 0.558008 2.24727 0.652539 1.89922 0.787891C1.53613 0.929687 1.22891 1.1166 0.923828 1.42383C0.616602 1.72891 0.429688 2.03613 0.287891 2.39707C0.152539 2.74727 0.0580078 3.14687 0.0322266 3.73125C0.00644531 4.31992 0 4.50683 0 6C0 7.49316 0.00644531 7.68008 0.0322266 8.2666C0.0580078 8.85098 0.152539 9.25273 0.287891 9.60078C0.429688 9.96387 0.616602 10.2711 0.923828 10.5762C1.22891 10.8812 1.53613 11.0703 1.89707 11.21C2.24727 11.3453 2.64688 11.4398 3.23125 11.4656C3.81777 11.4914 4.00469 11.4978 5.49785 11.4978C6.99102 11.4978 7.17793 11.4914 7.76446 11.4656C8.34883 11.4398 8.75059 11.3453 9.09864 11.21C9.45957 11.0703 9.7668 10.8812 10.0719 10.5762C10.377 10.2711 10.566 9.96387 10.7057 9.60293C10.841 9.25273 10.9355 8.85312 10.9613 8.26875C10.9871 7.68223 10.9936 7.49531 10.9936 6.00215C10.9936 4.50898 10.9871 4.32207 10.9613 3.73555C10.9355 3.15117 10.841 2.74941 10.7057 2.40137C10.5703 2.03613 10.3834 1.72891 10.0762 1.42383C9.7711 1.11875 9.46387 0.929687 9.10293 0.790039C8.75274 0.654687 8.35313 0.560156 7.76875 0.534375C7.18008 0.506445 6.99317 0.5 5.5 0.5Z" fill="white"/>
<path d="M5.50098 3.17578C3.94121 3.17578 2.67578 4.44121 2.67578 6.00098C2.67578 7.56074 3.94121 8.82617 5.50098 8.82617C7.06074 8.82617 8.32617 7.56074 8.32617 6.00098C8.32617 4.44121 7.06074 3.17578 5.50098 3.17578ZM5.50098 7.83359C4.48906 7.83359 3.66836 7.01289 3.66836 6.00098C3.66836 4.98906 4.48906 4.16836 5.50098 4.16836C6.51289 4.16836 7.33359 4.98906 7.33359 6.00098C7.33359 7.01289 6.51289 7.83359 5.50098 7.83359Z" fill="white"/>
<path d="M9.09648 3.06387C9.09648 3.4291 8.8 3.72344 8.43691 3.72344C8.07168 3.72344 7.77734 3.42695 7.77734 3.06387C7.77734 2.69863 8.07383 2.4043 8.43691 2.4043C8.8 2.4043 9.09648 2.70078 9.09648 3.06387Z" fill="white"/>
</g>
<defs>
<clipPath id="clip0_20401_6063">
<rect width="11" height="11" fill="white" transform="translate(0 0.5)"/>
</clipPath>
</defs>
</svg>
