<svg width="11" height="10" viewBox="0 0 11 10" fill="none" xmlns="http://www.w3.org/2000/svg">
<g clip-path="url(#clip0_20401_6067)">
<path d="M7.0262 1.57617H0.56001C0.411486 1.57617 0.269045 1.63517 0.164023 1.74019C0.0590009 1.84522 0 1.98766 0 2.13618V8.60237C0 8.75089 0.0590009 8.89333 0.164023 8.99836C0.269045 9.10338 0.411486 9.16238 0.56001 9.16238H7.0262C7.17472 9.16238 7.31716 9.10338 7.42218 8.99836C7.52721 8.89333 7.58621 8.75089 7.58621 8.60237V2.13618C7.58621 1.98766 7.52721 1.84522 7.42218 1.74019C7.31716 1.63517 7.17472 1.57617 7.0262 1.57617ZM2.26111 8.03867H1.12055V4.41573H2.26111V8.03867ZM1.69004 3.91367C1.56066 3.91294 1.4344 3.87391 1.32719 3.80149C1.21997 3.72907 1.13662 3.62651 1.08763 3.50676C1.03865 3.38701 1.02624 3.25544 1.05196 3.12864C1.07769 3.00185 1.1404 2.88551 1.23218 2.79432C1.32395 2.70313 1.44069 2.64117 1.56765 2.61626C1.69461 2.59135 1.8261 2.60461 1.94553 2.65436C2.06496 2.70411 2.16698 2.78812 2.23871 2.8958C2.31044 3.00347 2.34867 3.12998 2.34856 3.25936C2.34978 3.34598 2.33355 3.43196 2.30084 3.51217C2.26812 3.59239 2.21959 3.66519 2.15814 3.72625C2.09669 3.78731 2.02357 3.83537 1.94315 3.86757C1.86273 3.89977 1.77665 3.91545 1.69004 3.91367ZM6.46513 8.04183H5.3251V6.06257C5.3251 5.47885 5.07696 5.29868 4.75666 5.29868C4.41844 5.29868 4.08654 5.55366 4.08654 6.07732V8.04183H2.94598V4.41837H4.04282V4.92042H4.05757C4.16767 4.69758 4.55331 4.31669 5.14176 4.31669C5.77816 4.31669 6.46566 4.69442 6.46566 5.80074L6.46513 8.04183Z" fill="white"/>
</g>
<path d="M9.20668 8.43281V7.20811H9.82733C9.87711 7.20811 9.93132 7.2225 9.98996 7.25126C10.0486 7.27892 10.0984 7.32207 10.1393 7.3807C10.1814 7.43823 10.2024 7.51125 10.2024 7.59975C10.2024 7.68936 10.1808 7.7657 10.1377 7.82876C10.0945 7.89071 10.042 7.93773 9.98 7.96982C9.91915 8.0019 9.86162 8.01794 9.80741 8.01794H9.35935V7.8188H9.72444C9.76095 7.8188 9.80022 7.80055 9.84226 7.76404C9.88541 7.72753 9.90698 7.67277 9.90698 7.59975C9.90698 7.52452 9.88541 7.47363 9.84226 7.44708C9.80022 7.42053 9.76316 7.40725 9.73108 7.40725H9.47552V8.43281H9.20668ZM9.94681 7.85531L10.2522 8.43281H9.95677L9.65806 7.85531H9.94681ZM9.67134 9.16298C9.48769 9.16298 9.31565 9.12869 9.15524 9.0601C8.99482 8.9915 8.85376 8.89636 8.73207 8.77467C8.61037 8.65297 8.51523 8.51191 8.44664 8.3515C8.37805 8.19108 8.34375 8.01905 8.34375 7.8354C8.34375 7.65175 8.37805 7.47972 8.44664 7.3193C8.51523 7.15888 8.61037 7.01783 8.73207 6.89613C8.85376 6.77444 8.99482 6.67929 9.15524 6.6107C9.31565 6.54211 9.48769 6.50781 9.67134 6.50781C9.85499 6.50781 10.027 6.54211 10.1874 6.6107C10.3479 6.67929 10.4889 6.77444 10.6106 6.89613C10.7323 7.01783 10.8274 7.15888 10.896 7.3193C10.9646 7.47972 10.9989 7.65175 10.9989 7.8354C10.9989 8.01905 10.9646 8.19108 10.896 8.3515C10.8274 8.51191 10.7323 8.65297 10.6106 8.77467C10.4889 8.89636 10.3479 8.9915 10.1874 9.0601C10.027 9.12869 9.85499 9.16298 9.67134 9.16298ZM9.67134 8.84436C9.8572 8.84436 10.0265 8.799 10.1791 8.70829C10.3318 8.61757 10.4535 8.49587 10.5442 8.3432C10.6349 8.19053 10.6803 8.02126 10.6803 7.8354C10.6803 7.64954 10.6349 7.48027 10.5442 7.3276C10.4535 7.17492 10.3318 7.05323 10.1791 6.96251C10.0265 6.87179 9.8572 6.82643 9.67134 6.82643C9.48547 6.82643 9.31621 6.87179 9.16353 6.96251C9.01086 7.05323 8.88917 7.17492 8.79845 7.3276C8.70773 7.48027 8.66237 7.64954 8.66237 7.8354C8.66237 8.02126 8.70773 8.19053 8.79845 8.3432C8.88917 8.49587 9.01086 8.61757 9.16353 8.70829C9.31621 8.799 9.48547 8.84436 9.67134 8.84436Z" fill="white"/>
<defs>
<clipPath id="clip0_20401_6067">
<rect width="7.58621" height="7.58621" fill="white" transform="translate(0 1.57617)"/>
</clipPath>
</defs>
</svg>
