<?xml version="1.0" encoding="UTF-8"?>
<svg width="201px" height="70px" viewBox="0 0 201 70" version="1.1" xmlns="http://www.w3.org/2000/svg" xmlns:xlink="http://www.w3.org/1999/xlink">
    <title>VCA Animal Hospital Logo - Full Color</title>
    <g id="Symbols" stroke="none" stroke-width="1" fill="none" fill-rule="evenodd">
        <g id="Nav-/-Corporate" transform="translate(-622.000000, -30.000000)">
            <g id="Group" transform="translate(620.000000, 30.000000)">
                <g id="VCA_Logo_RGB_main-TM-Copy" transform="translate(2.000000, 0.000000)">
                    <path d="M161.239877,15.5595423 L154.215476,8.48170467 L144.037964,18.7368904 L154.215476,28.9920761 L161.240127,21.9142385 C162.981571,20.1592947 162.981571,17.3142347 161.239877,15.5595423" id="Fill-1" fill="#E2654B"></path>
                    <path d="M133.860203,8.48170467 L126.835801,15.5595423 C125.094107,17.3142347 125.094107,20.1592947 126.835801,21.9142385 L133.860203,28.9920761 L144.037964,18.7368904 L133.860203,8.48170467" id="Fill-2" fill="#9D5190"></path>
                    <path d="M147.042399,1.25380956 C145.383274,-0.417936521 142.692653,-0.417936521 141.033279,1.25380956 L133.860203,8.48170467 L144.037964,18.7368904 L154.215476,8.48170467 L147.042399,1.25380956" id="Fill-3" fill="#47BCD3"></path>
                    <path d="M1.64833983,26.001483 L12.0625844,26.001483 C12.321768,26.001483 12.5535117,26.1638568 12.6440638,26.4084228 L22.5973156,53.3167231 L22.761457,53.3167231 L31.982808,26.4224986 C32.0691194,26.1706433 32.3046049,26.001483 32.5690271,26.001483 L41.9966774,26.001483 C43.2132691,26.001483 44.047197,27.2371323 43.6001737,28.3772677 L28.9135145,65.8340822 C28.8199689,66.0726158 28.5912188,66.2294598 28.3365253,66.2294598 L16.1114874,66.2294598 C15.8605357,66.2294598 15.6342801,66.0768888 15.5382399,65.8431308 L0.12666474,28.294824 C-0.321605775,27.2024457 0.475153281,26.001483 1.64833983,26.001483" id="Fill-4" fill="#21407E"></path>
                    <path d="M79.6319431,61.3931846 L75.4366101,56.9527897 L73.2902998,54.5375427 C72.8273115,54.0217671 71.8993391,53.8626609 71.2929142,54.1949491 C71.2929142,54.1949491 69.2718303,55.5414449 68.5371855,55.8086327 C67.7294505,56.1022125 66.8438855,56.2970108 65.8443195,56.2970108 C62.7221416,56.2970108 60.2986869,55.3592143 58.5737061,53.4821131 C56.8489747,51.6072741 55.98611,49.1510566 55.98611,46.1154714 C55.98611,43.081897 56.8489747,40.6256794 58.5737061,38.7488296 C60.2986869,36.8737393 62.7221416,35.9349374 65.8443195,35.9349374 C66.8865422,35.9349374 67.8721387,36.1365222 68.8031045,36.5336593 C68.8080936,36.5356701 68.8128332,36.5376809 68.8175729,36.5396917 C69.0208787,36.6329435 69.1969938,36.7264467 69.3571439,36.8141687 L71.3495405,38.0603749 C71.9559654,38.392663 72.8839377,38.2335568 73.3469261,37.7177813 L76.7567256,33.8811354 L76.756975,33.8806327 L79.6316937,30.8377582 C79.8726671,30.5828867 79.8572009,30.1812252 79.6042536,29.9381673 C77.7864755,28.1902613 75.6775835,26.9470714 73.2780765,26.2091002 C70.6762616,25.4090449 68.1979268,25.0083889 65.8443195,25.0083889 C62.7760239,25.0083889 59.8878346,25.5050616 57.1775068,26.4981557 C54.4669295,27.4912498 52.1113266,28.9134027 50.1126936,30.7608443 C48.1130629,32.6113021 46.5392517,34.8314995 45.3895139,37.4247042 C44.2395267,40.0186629 43.6635353,42.9155015 43.6635353,46.1154714 C43.6635353,49.316698 44.2395267,52.2132852 45.3895139,54.8064899 C46.5392517,57.4017054 48.1130629,59.6219029 50.1126936,61.4700985 C52.1113266,63.3195508 54.4669295,64.739693 57.1775068,65.7327871 C59.8878346,66.7258811 62.7760239,67.2225539 65.8443195,67.2225539 C68.1979268,67.2225539 70.6762616,66.8218978 73.2780765,66.0220939 C75.677833,65.2848767 77.7864755,64.0414355 79.6045031,62.2930269 C79.8572009,62.0497175 79.8726671,61.6483075 79.6319431,61.3931846" id="Fill-5" fill="#21407E"></path>
                    <path d="M109.545581,49.2234462 L109.545581,51.2475886 C109.545581,52.5176732 109.28515,53.6211111 108.765785,54.5581536 C108.244673,55.4972068 107.54595,56.2696134 106.670862,56.8763785 C105.793779,57.4844004 104.793963,57.952419 103.672414,58.2834503 C102.548869,58.6144817 101.384912,58.7798717 100.181292,58.7798717 C98.8112856,58.7798717 97.4971571,58.4211915 96.2376591,57.7040826 C94.9771633,56.9877277 94.3485369,55.8832844 94.3485369,54.3925122 C94.3485369,53.0143459 94.8007987,51.9383055 95.7043245,51.1648936 C96.6078502,50.3924871 97.7029574,49.8131193 98.9896459,49.4270418 C100.276584,49.0407128 101.61915,48.8056982 103.01535,48.7230032 C104.411798,48.6403082 105.574757,48.5983323 106.506721,48.5983323 L109.545581,48.5983323 L109.545581,49.2234462 Z M120.061104,36.8860556 C119.512553,34.3204997 118.541175,32.1555998 117.144726,30.3888425 C115.748527,28.6233419 113.885847,27.2848893 111.558433,26.3744902 C109.23027,25.4640911 106.260259,25.0083889 102.645159,25.0083889 C99.359837,25.0083889 96.182779,25.5470375 93.116479,26.6228266 C90.262964,27.6237126 87.741723,29.0906063 85.5525065,31.0227537 C85.2835941,31.2600305 85.2738654,31.6792867 85.5235697,31.9371744 L86.9734018,33.4347332 L90.1684206,37.0295779 C90.6314089,37.5456048 91.5593813,37.704711 92.1658062,37.3721715 L94.1582028,36.1262167 C94.3522787,36.0198946 94.735192,35.7305877 95.2548067,35.3852293 C96.0039198,34.8872998 97.040904,34.2732454 98.2285589,33.9102923 C99.3094471,33.6066583 100.451951,33.4510711 101.659562,33.4510711 C103.795146,33.4510711 105.643607,34.1008175 107.204197,35.3965401 C108.252905,36.2677282 108.948136,37.3442714 109.292384,38.6251642 C109.292634,38.6259182 109.293382,38.6261696 109.293382,38.6269236 C109.584246,39.5720094 109.584246,40.6535796 109.584246,40.6535796 L108.915458,40.6535796 C107.393284,40.659612 105.754864,40.6875122 104.000946,40.7350178 C102.001315,40.7913208 100.002682,40.9567108 98.0040495,41.2316905 C96.0044187,41.5084297 94.0736376,41.9354778 92.2129532,42.5148455 C90.3502732,43.0942132 88.6933936,43.909601 87.243312,44.9567359 C85.7912349,46.006133 84.6412476,47.3302585 83.792602,48.930369 C82.942709,50.5314851 82.5188851,52.489019 82.5188851,54.8064899 C82.5188851,56.8487297 82.9022973,58.6431359 83.6698701,60.1869435 C84.4354473,61.7327619 85.4766722,63.0292386 86.7910503,64.0776302 C88.1051788,65.1260219 89.6251077,65.9127555 91.3500886,66.4368257 C93.07482,66.9598904 94.8686504,67.2225539 96.7305821,67.2225539 C99.2493285,67.2225539 101.645343,66.7535299 103.918875,65.8157334 C106.190412,64.8776855 108.012431,63.3328725 109.38144,61.1800376 L109.545581,61.1800376 L109.545581,65.6043459 C109.545581,65.949453 109.823474,66.2294598 110.165975,66.2294598 L120.882559,66.2294598 L120.882559,45.78444 C120.882559,42.4188288 120.60766,39.4528682 120.061104,36.8860556 L120.061104,36.8860556 Z" id="Fill-6" fill="#21407E"></path>
                    <path d="M139.204026,44.3446924 L138.793423,44.3446924 C138.519522,44.3446924 138.212692,44.3557519 137.873434,44.3776196 C137.533925,44.3999899 137.213625,44.4522713 136.912533,44.5349663 C136.611192,44.6176613 136.356498,44.7393159 136.148702,44.8991762 C135.940407,45.0590364 135.836385,45.2824889 135.836385,45.5695336 C135.836385,45.7572939 135.877545,45.9143893 135.959615,46.041071 C136.041686,46.1682554 136.148702,46.2758343 136.279915,46.3638077 C136.411378,46.4522839 136.559305,46.5156247 136.723446,46.554333 C136.887837,46.5930413 137.051978,46.6121441 137.216369,46.6121441 C137.895136,46.6121441 138.396291,46.449519 138.719335,46.1240174 C139.042379,45.7985158 139.204026,45.3541244 139.204026,44.7913459 L139.204026,44.3446924 Z M139.319025,46.8107126 L139.269633,46.8107126 C138.984755,47.2633987 138.623295,47.5916651 138.185502,47.7957635 C137.747459,47.9996104 137.265512,48.1019109 136.73991,48.1019109 C136.37845,48.1019109 136.025471,48.0521431 135.680475,47.9528588 C135.335479,47.8535745 135.02865,47.7045225 134.760485,47.5059539 C134.492072,47.3073854 134.275795,47.059049 134.111653,46.7611962 C133.947262,46.463092 133.865192,46.1157227 133.865192,45.7183343 C133.865192,45.2880187 133.941774,44.9212952 134.095189,44.6176613 C134.248355,44.3142787 134.453656,44.0606639 134.711093,43.8563143 C134.968281,43.652216 135.266879,43.4895909 135.606387,43.3679362 C135.945895,43.2467843 136.298874,43.1557946 136.666072,43.0949673 C137.03277,43.0343913 137.402463,42.995683 137.774899,42.9790937 C138.147086,42.9625045 138.49757,42.9542098 138.826102,42.9542098 L139.319025,42.9542098 L139.319025,42.739052 C139.319025,42.2423793 139.149146,41.8701261 138.809887,41.6217898 C138.47013,41.3734534 138.037575,41.2492852 137.511973,41.2492852 C137.095633,41.2492852 136.706982,41.3239369 136.345772,41.4727377 C135.984311,41.6217898 135.672243,41.8233745 135.409318,42.0769893 L134.374579,41.0341274 C134.812372,40.5819441 135.324503,40.2561911 135.910473,40.0576226 C136.496193,39.859054 137.101371,39.7597698 137.725507,39.7597698 C138.284036,39.7597698 138.754758,39.823362 139.13842,39.9500437 C139.521582,40.0769767 139.838889,40.2396019 140.091088,40.4384218 C140.342788,40.6369903 140.537113,40.8659725 140.674314,41.125117 C140.811015,41.3845129 140.90955,41.6466737 140.969918,41.9113479 C141.030036,42.1762736 141.065708,42.4329046 141.076684,42.6809896 C141.087411,42.9293259 141.093148,43.1475 141.093148,43.335009 L141.093148,47.9033424 L139.319025,47.9033424 L139.319025,46.8107126 L139.319025,46.8107126 Z" id="Fill-7" fill="#21407E"></path>
                    <path d="M143.212019,39.9583383 L145.084677,39.9583383 L145.084677,41.2326959 L145.117605,41.2326959 C145.303698,40.8355589 145.588326,40.4907031 145.971739,40.19838 C146.354901,39.906057 146.875264,39.7597698 147.532329,39.7597698 C148.05793,39.7597698 148.503956,39.8479945 148.871153,40.024444 C149.237852,40.2011449 149.53645,40.432892 149.766447,40.7196853 C149.996444,41.00673 150.160586,41.3377613 150.25912,41.7127794 C150.357655,42.0880488 150.407047,42.4799075 150.407047,42.8881041 L150.407047,47.9033424 L148.435854,47.9033424 L148.435854,43.8811982 C148.435854,43.6605106 148.424629,43.4151905 148.402926,43.1444838 C148.380725,42.8742797 148.32335,42.620665 148.230553,42.3831368 C148.137257,42.1461113 147.992323,41.9472914 147.795005,41.7871798 C147.597935,41.6273195 147.329522,41.5473894 146.990263,41.5473894 C146.661731,41.5473894 146.384836,41.602687 146.160576,41.7127794 C145.936066,41.8233745 145.749973,41.9721753 145.602046,42.1596843 C145.454369,42.3474447 145.347602,42.5626025 145.281746,42.8051578 C145.21614,43.0479644 145.183211,43.3018305 145.183211,43.5667561 L145.183211,47.9033424 L143.212019,47.9033424 L143.212019,39.9583383" id="Fill-8" fill="#21407E"></path>
                    <path d="M152.673844,47.9033424 L154.645037,47.9033424 L154.645037,39.9583383 L152.673844,39.9583383 L152.673844,47.9033424 Z M152.394455,37.2603196 C152.394455,36.9403477 152.512197,36.6618491 152.747683,36.4245722 C152.983168,36.1872954 153.281516,36.068657 153.642977,36.068657 C154.004437,36.068657 154.308273,36.1817656 154.554734,36.407983 C154.801196,36.6342003 154.924427,36.9184801 154.924427,37.2603196 C154.924427,37.6024105 154.801196,37.8866903 154.554734,38.1126562 C154.308273,38.3391249 154.004437,38.4519822 153.642977,38.4519822 C153.281516,38.4519822 152.983168,38.3335952 152.747683,38.0963183 C152.512197,37.8590415 152.394455,37.5805428 152.394455,37.2603196 L152.394455,37.2603196 Z" id="Fill-9" fill="#21407E"></path>
                    <path d="M156.829763,39.9583383 L158.702422,39.9583383 L158.702422,41.1997688 L158.73535,41.1997688 C158.910218,40.8247507 159.192351,40.4907031 159.581251,40.19838 C159.969902,39.906057 160.493009,39.7597698 161.150073,39.7597698 C162.38737,39.7597698 163.208825,40.2509127 163.614189,41.2326959 C163.898817,40.7254664 164.254789,40.3529619 164.681856,40.1154337 C165.108923,39.8784082 165.61831,39.7597698 166.209518,39.7597698 C166.73512,39.7597698 167.178651,39.8479945 167.540111,40.024444 C167.901571,40.2011449 168.194431,40.4439515 168.418941,40.7528638 C168.643201,41.0617762 168.805097,41.4232212 168.903632,41.8369476 C169.002166,42.2506739 169.051558,42.6950653 169.051558,43.1693677 L169.051558,47.9033424 L167.080116,47.9033424 L167.080116,43.4011147 C167.080116,43.1585595 167.058164,42.9240475 167.014509,42.6975788 C166.970605,42.4716129 166.893773,42.2730443 166.784512,42.1018732 C166.675001,41.9309534 166.527074,41.7954744 166.340981,41.6961901 C166.154638,41.5969058 165.913914,41.5473894 165.61831,41.5473894 C165.311481,41.5473894 165.051549,41.6052005 164.838015,41.721074 C164.624482,41.8369476 164.449115,41.9915294 164.312164,42.1845682 C164.175213,42.377607 164.076679,42.5982946 164.01656,42.8466309 C163.956192,43.0949673 163.926257,43.3460685 163.926257,43.5996833 L163.926257,47.9033424 L161.955064,47.9033424 L161.955064,43.1693677 C161.955064,42.6726949 161.850792,42.2783227 161.642996,41.9859997 C161.434701,41.6936766 161.089705,41.5473894 160.608008,41.5473894 C160.279476,41.5473894 160.00283,41.602687 159.778321,41.7127794 C159.553811,41.8233745 159.367718,41.9721753 159.219791,42.1596843 C159.072114,42.3474447 158.965347,42.5626025 158.899491,42.8051578 C158.833884,43.0479644 158.800956,43.3018305 158.800956,43.5667561 L158.800956,47.9033424 L156.829763,47.9033424 L156.829763,39.9583383" id="Fill-10" fill="#21407E"></path>
                    <path d="M176.01634,44.3446924 L175.605737,44.3446924 C175.331836,44.3446924 175.025256,44.3557519 174.685747,44.3776196 C174.346239,44.3999899 174.025939,44.4522713 173.724847,44.5349663 C173.423506,44.6176613 173.168812,44.7393159 172.961016,44.8991762 C172.752721,45.0590364 172.648948,45.2824889 172.648948,45.5695336 C172.648948,45.7572939 172.689859,45.9143893 172.772179,46.041071 C172.854249,46.1682554 172.961016,46.2758343 173.092479,46.3638077 C173.223692,46.4522839 173.371619,46.5156247 173.53601,46.554333 C173.700151,46.5930413 173.864542,46.6121441 174.028683,46.6121441 C174.7077,46.6121441 175.208605,46.449519 175.531899,46.1240174 C175.854693,45.7985158 176.01634,45.3541244 176.01634,44.7913459 L176.01634,44.3446924 Z M176.131339,46.8107126 L176.082196,46.8107126 C175.797069,47.2633987 175.435858,47.5916651 174.997816,47.7957635 C174.559773,47.9996104 174.078075,48.1019109 173.552224,48.1019109 C173.191014,48.1019109 172.837785,48.0521431 172.492789,47.9528588 C172.147793,47.8535745 171.841213,47.7045225 171.572799,47.5059539 C171.304386,47.3073854 171.088358,47.059049 170.923967,46.7611962 C170.759826,46.463092 170.677506,46.1157227 170.677506,45.7183343 C170.677506,45.2880187 170.754088,44.9212952 170.907503,44.6176613 C171.060918,44.3142787 171.266219,44.0606639 171.523657,43.8563143 C171.780845,43.652216 172.079193,43.4895909 172.418951,43.3679362 C172.758209,43.2467843 173.111437,43.1557946 173.478386,43.0949673 C173.845334,43.0343913 174.214777,42.995683 174.587213,42.9790937 C174.9594,42.9625045 175.310133,42.9542098 175.638665,42.9542098 L176.131339,42.9542098 L176.131339,42.739052 C176.131339,42.2423793 175.96146,41.8701261 175.622201,41.6217898 C175.282444,41.3734534 174.850138,41.2492852 174.324537,41.2492852 C173.908196,41.2492852 173.519546,41.3239369 173.158085,41.4727377 C172.796625,41.6217898 172.484557,41.8233745 172.221632,42.0769893 L171.186893,41.0341274 C171.624686,40.5819441 172.136817,40.2561911 172.722787,40.0576226 C173.308507,39.859054 173.913684,39.7597698 174.53807,39.7597698 C175.0966,39.7597698 175.567321,39.823362 175.950733,39.9500437 C176.333896,40.0769767 176.651452,40.2396019 176.903402,40.4384218 C177.155351,40.6369903 177.349427,40.8659725 177.486627,41.125117 C177.623329,41.3845129 177.722113,41.6466737 177.782232,41.9113479 C177.84235,42.1762736 177.878022,42.4329046 177.888998,42.6809896 C177.899974,42.9293259 177.905462,43.1475 177.905462,43.335009 L177.905462,47.9033424 L176.131339,47.9033424 L176.131339,46.8107126 L176.131339,46.8107126 Z" id="Fill-11" fill="#21407E"></path>
                    <polygon id="Fill-12" fill="#21407E" points="180.057261 47.9033424 182.028453 47.9033424 182.028453 35.390005 180.057261 35.390005"></polygon>
                    <path d="M136.362236,59.3901558 L136.394914,59.3901558 C136.548329,59.0591244 136.819237,58.7585067 137.208137,58.4880513 C137.596788,58.2178473 138.097694,58.0826196 138.711103,58.0826196 C139.236954,58.0826196 139.68298,58.1710957 140.049928,58.3472939 C140.416876,58.5239947 140.715224,58.7557418 140.945222,59.0425351 C141.175219,59.3295798 141.33961,59.6606112 141.438145,60.0356292 C141.536679,60.4108986 141.585822,60.8027573 141.585822,61.2109539 L141.585822,66.2261922 L139.614629,66.2261922 L139.614629,62.204048 C139.614629,61.9833605 139.603653,61.7380403 139.581701,61.4675849 C139.559749,61.1971296 139.502374,60.9435148 139.409328,60.7059866 C139.316281,60.4689611 139.171098,60.2703925 138.974029,60.1102809 C138.776959,59.9504207 138.508546,59.8702392 138.169038,59.8702392 C137.840506,59.8702392 137.56386,59.9255368 137.3396,60.0356292 C137.114841,60.1462244 136.928748,60.2950251 136.78107,60.4825341 C136.633144,60.6702945 136.526377,60.8854523 136.46077,61.1282589 C136.394914,61.3710655 136.362236,61.6246803 136.362236,61.8896059 L136.362236,66.2261922 L134.390793,66.2261922 L134.390793,53.7128548 L136.362236,53.7128548 L136.362236,59.3901558" id="Fill-13" fill="#21407E"></path>
                    <path d="M145.396745,62.2538158 C145.396745,62.5627282 145.448632,62.860581 145.552904,63.1473743 C145.656926,63.4346703 145.810092,63.6882851 146.012899,63.9089727 C146.215456,64.1296602 146.458924,64.3061098 146.743802,64.4385726 C147.02843,64.5710354 147.351723,64.6371411 147.712934,64.6371411 C148.074394,64.6371411 148.397438,64.5710354 148.682316,64.4385726 C148.966944,64.3061098 149.210412,64.1296602 149.413219,63.9089727 C149.615776,63.6882851 149.768942,63.4346703 149.873214,63.1473743 C149.977236,62.860581 150.029372,62.5627282 150.029372,62.2538158 C150.029372,61.9449035 149.977236,61.6470507 149.873214,61.3597547 C149.768942,61.0729614 149.615776,60.8193466 149.413219,60.5984077 C149.210412,60.3779715 148.966944,60.2012706 148.682316,60.0688078 C148.397438,59.936345 148.074394,59.8702392 147.712934,59.8702392 C147.351723,59.8702392 147.02843,59.936345 146.743802,60.0688078 C146.458924,60.2012706 146.215456,60.3779715 146.012899,60.5984077 C145.810092,60.8193466 145.656926,61.0729614 145.552904,61.3597547 C145.448632,61.6470507 145.396745,61.9449035 145.396745,62.2538158 Z M143.425552,62.2538158 C143.425552,61.6246803 143.537807,61.0536072 143.762316,60.5405966 C143.986576,60.0273346 144.290662,59.5887243 144.674074,59.2247658 C145.057237,58.8605559 145.511744,58.579041 146.037595,58.3804724 C146.563196,58.1819039 147.121726,58.0826196 147.712934,58.0826196 C148.304392,58.0826196 148.862921,58.1819039 149.388523,58.3804724 C149.914374,58.579041 150.368631,58.8605559 150.752043,59.2247658 C151.135206,59.5887243 151.439042,60.0273346 151.663801,60.5405966 C151.888061,61.0536072 152.000565,61.6246803 152.000565,62.2538158 C152.000565,62.8827 151.888061,63.4537731 151.663801,63.9667838 C151.439042,64.4800457 151.135206,64.918656 150.752043,65.2826146 C150.368631,65.6468245 149.914374,65.9283394 149.388523,66.1269079 C148.862921,66.3254765 148.304392,66.4247607 147.712934,66.4247607 C147.121726,66.4247607 146.563196,66.3254765 146.037595,66.1269079 C145.511744,65.9283394 145.057237,65.6468245 144.674074,65.2826146 C144.290662,64.918656 143.986576,64.4800457 143.762316,63.9667838 C143.537807,63.4537731 143.425552,62.8827 143.425552,62.2538158 L143.425552,62.2538158 Z" id="Fill-14" fill="#21407E"></path>
                    <path d="M158.045357,60.4825341 C157.661945,59.9421261 157.14732,59.6716707 156.501231,59.6716707 C156.238306,59.6716707 155.980868,59.7377764 155.729168,59.8702392 C155.477219,60.002702 155.351244,60.2178599 155.351244,60.5157127 C155.351244,60.7585193 155.455267,60.9352202 155.663562,61.0453126 C155.871358,61.1559077 156.134283,61.2496622 156.452089,61.3268275 C156.769395,61.4039927 157.111647,61.4839229 157.478596,61.5668692 C157.845544,61.6495642 158.187547,61.7764973 158.505352,61.947417 C158.822908,62.1185882 159.085584,62.3531001 159.293879,62.6509529 C159.501675,62.9488058 159.605947,63.3572537 159.605947,63.8757941 C159.605947,64.3503478 159.504669,64.7505011 159.302111,65.0757514 C159.099304,65.4015043 158.836379,65.6634137 158.513584,65.8619823 C158.190291,66.0605508 157.826086,66.2040732 157.421221,66.2922979 C157.015857,66.3805227 156.610493,66.4247607 156.205627,66.4247607 C155.592217,66.4247607 155.0282,66.3362846 154.513574,66.1600865 C153.998699,65.9836369 153.538704,65.6634137 153.13359,65.1999196 L154.447968,63.9584891 C154.699668,64.2455338 154.970825,64.4800457 155.260941,64.662025 C155.551057,64.8440043 155.904286,64.9349939 156.320626,64.9349939 C156.462815,64.9349939 156.610493,64.918656 156.764157,64.8854775 C156.917322,64.8522989 157.059761,64.7972527 157.191224,64.7198361 C157.322686,64.6429222 157.429453,64.5461515 157.511524,64.4302779 C157.593594,64.3144044 157.634754,64.179428 157.634754,64.0248462 C157.634754,63.7491124 157.530482,63.5447628 157.322686,63.4122999 C157.114391,63.2798371 156.851715,63.1722582 156.534159,63.0895632 C156.216354,63.0068682 155.874102,62.929703 155.507403,62.8578161 C155.140455,62.7861806 154.798202,62.6703071 154.480646,62.5101955 C154.16309,62.3503352 153.900165,62.1268828 153.692119,61.8398381 C153.484074,61.5530448 153.380051,61.1559077 153.380051,60.6481755 C153.380051,60.2068003 153.470354,59.8234876 153.651209,59.4977347 C153.831814,59.1724844 154.070043,58.9047939 154.365648,58.6949145 C154.661501,58.4855378 155.00076,58.330956 155.384172,58.2316717 C155.767335,58.1321361 156.156235,58.0826196 156.550623,58.0826196 C157.076225,58.0826196 157.596089,58.1736092 158.111213,58.3555885 C158.625839,58.5378191 159.04168,58.8497477 159.359486,59.2908715 L158.045357,60.4825341" id="Fill-15" fill="#21407E"></path>
                    <path d="M167.671324,62.2538158 C167.671324,61.9449035 167.619188,61.6470507 167.515415,61.3597547 C167.411143,61.0729614 167.257977,60.8193466 167.05542,60.5984077 C166.852613,60.3779715 166.608896,60.2012706 166.324268,60.0688078 C166.03939,59.936345 165.716595,59.8702392 165.355135,59.8702392 C164.993675,59.8702392 164.670631,59.936345 164.386003,60.0688078 C164.101125,60.2012706 163.857408,60.3779715 163.6551,60.5984077 C163.452293,60.8193466 163.298878,61.0729614 163.195105,61.3597547 C163.090833,61.6470507 163.038946,61.9449035 163.038946,62.2538158 C163.038946,62.5627282 163.090833,62.860581 163.195105,63.1473743 C163.298878,63.4346703 163.452293,63.6882851 163.6551,63.9089727 C163.857408,64.1296602 164.101125,64.3061098 164.386003,64.4385726 C164.670631,64.5710354 164.993675,64.6371411 165.355135,64.6371411 C165.716595,64.6371411 166.03939,64.5710354 166.324268,64.4385726 C166.608896,64.3061098 166.852613,64.1296602 167.05542,63.9089727 C167.257977,63.6882851 167.411143,63.4346703 167.515415,63.1473743 C167.619188,62.860581 167.671324,62.5627282 167.671324,62.2538158 Z M161.13336,58.2811881 L163.006018,58.2811881 L163.006018,59.4728508 L163.038946,59.4728508 C163.323574,58.9874889 163.706737,58.6345899 164.188933,58.413651 C164.670631,58.1929634 165.190994,58.0826196 165.749523,58.0826196 C166.351458,58.0826196 166.893773,58.1901985 167.37572,58.4053563 C167.857418,58.6205141 168.26802,58.9158534 168.607778,59.2908715 C168.947037,59.6661409 169.204474,60.1075161 169.379841,60.614997 C169.554958,61.1227292 169.642517,61.6689184 169.642517,62.2538158 C169.642517,62.8387133 169.54947,63.3849025 169.363377,63.8923834 C169.177034,64.4001156 168.917102,64.8414908 168.583082,65.2165088 C168.248812,65.5917783 167.846442,65.8868662 167.37572,66.102024 C166.904749,66.3171818 166.390124,66.4247607 165.831594,66.4247607 C165.459158,66.4247607 165.130626,66.3860524 164.845998,66.3088872 C164.56112,66.2314706 164.309171,66.1324377 164.090399,66.0110344 C163.871128,65.8896311 163.685034,65.7601845 163.531869,65.6219406 C163.378205,65.4841993 163.25248,65.3489717 163.153945,65.2165088 L163.104553,65.2165088 L163.104553,70 L161.13336,70 L161.13336,58.2811881 L161.13336,58.2811881 Z" id="Fill-16" fill="#21407E"></path>
                    <path d="M171.515175,66.2261922 L173.486368,66.2261922 L173.486368,58.2811881 L171.515175,58.2811881 L171.515175,66.2261922 Z M171.235786,55.5831694 C171.235786,55.2631976 171.353528,54.9846989 171.589014,54.7474221 C171.824499,54.5101452 172.122848,54.3915068 172.484308,54.3915068 C172.845768,54.3915068 173.149604,54.5048668 173.396065,54.7308328 C173.642527,54.9570501 173.765758,55.2413299 173.765758,55.5831694 C173.765758,55.9255117 173.642527,56.2095401 173.396065,56.4357574 C173.149604,56.6619748 172.845768,56.7750834 172.484308,56.7750834 C172.122848,56.7750834 171.824499,56.656445 171.589014,56.4191681 C171.353528,56.1818913 171.235786,55.9033926 171.235786,55.5831694 L171.235786,55.5831694 Z" id="Fill-17" fill="#21407E"></path>
                    <path d="M174.833175,59.9695235 L174.833175,58.2811881 L176.459622,58.2811881 L176.459622,55.9805579 L178.430814,55.9805579 L178.430814,58.2811881 L180.599077,58.2811881 L180.599077,59.9695235 L178.430814,59.9695235 L178.430814,63.4454785 C178.430814,63.8426156 178.504653,64.157309 178.65258,64.3888048 C178.800507,64.6205518 179.093367,64.7364254 179.53141,64.7364254 C179.706527,64.7364254 179.898108,64.7173226 180.106403,64.6786143 C180.314199,64.639906 180.47859,64.5765651 180.599077,64.488089 L180.599077,66.1600865 C180.391031,66.2593707 180.136338,66.32799 179.835246,66.3669496 C179.533904,66.4054066 179.268484,66.4247607 179.038487,66.4247607 C178.512885,66.4247607 178.083074,66.3669496 177.749054,66.2510761 C177.414784,66.1352026 177.152108,65.958753 176.960527,65.7212248 C176.768946,65.4841993 176.637483,65.1891114 176.566388,64.8357097 C176.495044,64.4828106 176.459622,64.0743627 176.459622,63.6108685 L176.459622,59.9695235 L174.833175,59.9695235" id="Fill-18" fill="#21407E"></path>
                    <path d="M186.956186,62.6675422 L186.545583,62.6675422 C186.271682,62.6675422 185.965102,62.6786017 185.625594,62.7004694 C185.286085,62.7228398 184.965785,62.7751211 184.664693,62.8578161 C184.363352,62.9405111 184.108658,63.0621658 183.900862,63.222026 C183.692817,63.3821376 183.588794,63.6055901 183.588794,63.8923834 C183.588794,64.0801438 183.629954,64.2372391 183.712025,64.3641722 C183.794095,64.4911053 183.900862,64.5986842 184.032325,64.6869089 C184.163788,64.7751337 184.311465,64.8387259 184.475856,64.8771828 C184.639997,64.9158911 184.804388,64.9349939 184.968529,64.9349939 C185.647546,64.9349939 186.148451,64.7723688 186.471745,64.4468672 C186.794539,64.1213656 186.956186,63.6772256 186.956186,63.1144471 L186.956186,62.6675422 Z M187.071185,65.1338138 L187.022042,65.1338138 C186.737165,65.5862485 186.375705,65.914515 185.937911,66.1186133 C185.499619,66.3227116 185.017921,66.4247607 184.49232,66.4247607 C184.13086,66.4247607 183.777631,66.3749929 183.432635,66.2757087 C183.087639,66.1764244 182.781059,66.0276236 182.512895,65.8288038 C182.244232,65.6302352 182.028204,65.3818988 181.863813,65.084046 C181.699672,64.7861932 181.617601,64.4385726 181.617601,64.0411841 C181.617601,63.6108685 181.693934,63.2441451 181.847599,62.9405111 C182.000764,62.6371285 182.206065,62.3835138 182.463503,62.1791641 C182.720691,61.9750658 183.019288,61.8124407 183.358797,61.6910374 C183.698055,61.5696341 184.051283,61.4786445 184.418232,61.4178171 C184.78518,61.3572412 185.154623,61.3185329 185.527059,61.3019436 C185.899246,61.2853543 186.249979,61.2770597 186.578511,61.2770597 L187.071185,61.2770597 L187.071185,61.0619019 C187.071185,60.5654805 186.901306,60.192976 186.562047,59.9446396 C186.222539,59.6963032 185.789984,59.5723864 185.264383,59.5723864 C184.848043,59.5723864 184.459392,59.6467868 184.097932,59.7955875 C183.736471,59.9446396 183.424403,60.1462244 183.161727,60.3998391 L182.126739,59.3569772 C182.564532,58.9047939 183.076663,58.579041 183.662633,58.3804724 C184.248353,58.1819039 184.853531,58.0826196 185.477916,58.0826196 C186.036446,58.0826196 186.507167,58.1462118 186.89058,58.2728935 C187.273742,58.3998266 187.591298,58.562703 187.843497,58.7612716 C188.095197,58.9598401 188.289523,59.1890737 188.426474,59.4482182 C188.563424,59.7076141 188.661959,59.9695235 188.722078,60.2344491 C188.782196,60.4991234 188.817868,60.7557544 188.829094,61.0040908 C188.83982,61.2524271 188.845308,61.4703498 188.845308,61.6578589 L188.845308,66.2261922 L187.071185,66.2261922 L187.071185,65.1338138 L187.071185,65.1338138 Z" id="Fill-19" fill="#21407E"></path>
                    <polygon id="Fill-20" fill="#21407E" points="190.997107 66.2261922 192.9683 66.2261922 192.9683 53.7128548 190.997107 53.7128548"></polygon>
                    <path d="M199.440907,60.4825341 C199.056996,59.9421261 198.54237,59.6716707 197.896282,59.6716707 C197.633606,59.6716707 197.376168,59.7377764 197.124219,59.8702392 C196.872269,60.002702 196.746544,60.2178599 196.746544,60.5157127 C196.746544,60.7585193 196.850567,60.9352202 197.058612,61.0453126 C197.266408,61.1559077 197.529334,61.2496622 197.847139,61.3268275 C198.164695,61.4039927 198.506698,61.4839229 198.873896,61.5668692 C199.241343,61.6495642 199.583096,61.7764973 199.899904,61.947417 C200.219206,62.1185882 200.481134,62.3531001 200.688181,62.6509529 C200.897723,62.9488058 201,63.3572537 201,63.8757941 C201,64.3503478 200.900218,64.7505011 200.69816,65.0757514 C200.493606,65.4015043 200.231679,65.6634137 199.909882,65.8619823 C199.585591,66.0605508 199.221386,66.2040732 198.816272,66.2922979 C198.410907,66.3805227 198.005792,66.4247607 197.600678,66.4247607 C196.987268,66.4247607 196.42325,66.3362846 195.908625,66.1600865 C195.39375,65.9836369 194.933755,65.6634137 194.52889,65.1999196 L195.843018,63.9584891 C196.094718,64.2455338 196.365876,64.4800457 196.656241,64.662025 C196.946108,64.8440043 197.299336,64.9349939 197.715676,64.9349939 C197.857866,64.9349939 198.005792,64.918656 198.159207,64.8854775 C198.312373,64.8522989 198.454811,64.7972527 198.586274,64.7198361 C198.717737,64.6429222 198.824504,64.5461515 198.906574,64.4302779 C198.988894,64.3144044 199.029805,64.179428 199.029805,64.0248462 C199.029805,63.7491124 198.925533,63.5447628 198.717737,63.4122999 C198.509691,63.2798371 198.246766,63.1722582 197.92921,63.0895632 C197.611404,63.0068682 197.269401,62.929703 196.902453,62.8578161 C196.535505,62.7861806 196.193502,62.6703071 195.875946,62.5101955 C195.558141,62.3503352 195.295215,62.1268828 195.087419,61.8398381 C194.879124,61.5530448 194.775351,61.1559077 194.775351,60.6481755 C194.775351,60.2068003 194.865654,59.8234876 195.046259,59.4977347 C195.227114,59.1724844 195.465094,58.9047939 195.760947,58.6949145 C196.056552,58.4855378 196.39581,58.330956 196.779472,58.2316717 C197.162635,58.1321361 197.551535,58.0826196 197.945674,58.0826196 C198.471275,58.0826196 198.991389,58.1736092 199.505765,58.3555885 C200.019642,58.5378191 200.436232,58.8497477 200.755534,59.2908715 L199.440907,60.4825341" id="Fill-21" fill="#21407E"></path>
                    <path d="M159.785555,27.1267885 L160.320137,27.1267885 L160.819047,28.5574875 L160.832517,28.5574875 L161.331178,27.1267885 L161.86576,27.1267885 L161.86576,28.9920761 L161.515275,28.9920761 L161.515275,27.4346955 L161.506544,27.4346955 L160.967223,28.9920761 L160.684092,28.9920761 L160.145019,27.4346955 L160.13579,27.4346955 L160.13579,28.9920761 L159.785555,28.9920761 L159.785555,27.1267885 Z M158.522814,27.4256468 L157.965781,27.4256468 L157.965781,27.1267885 L159.430581,27.1267885 L159.430581,27.4256468 L158.873298,27.4256468 L158.873298,28.9920761 L158.522814,28.9920761 L158.522814,27.4256468 L158.522814,27.4256468 Z" id="Fill-22" fill="#21407E"></path>
                </g>
            </g>
        </g>
    </g>
</svg>