<svg width="192" height="53" viewBox="0 0 192 53" fill="none" xmlns="http://www.w3.org/2000/svg">
<g clip-path="url(#clip0_81_3577)">
<path d="M83.5643 11.401C82.9155 6.79721 79.4859 4.35596 74.0478 4.35596C68.1464 4.35596 64.4075 7.01334 64.4075 11.4627C64.4075 14.3362 65.7056 17.0859 72.1014 18.5074C75.7164 19.3106 77.1995 19.805 77.1995 21.0103C77.1995 22.0918 75.9636 22.6479 74.2022 22.6479C72.5647 22.6479 71.1743 21.8136 70.8965 20.3304H63.9136C64.2224 24.8726 68.3319 27.7767 73.8006 27.7767C80.1964 27.7767 84.1825 25.0887 84.1825 20.0522C84.1825 18.6312 83.8115 17.2714 82.5755 16.0355C81.3707 14.8306 78.9915 13.8419 75.4075 13.0386C72.6885 12.4204 71.3909 11.8333 71.3909 10.7518C71.3909 9.91791 72.132 9.48522 73.7079 9.48522C75.3148 9.48522 76.4269 10.0723 76.6435 11.401H83.5643ZM128.428 4.35596C121.538 4.35596 116.78 8.92915 116.78 15.8811C116.78 23.235 121.26 27.7767 128.428 27.7767C135.288 27.7767 140.108 23.1729 140.108 15.9738C140.108 9.36141 135.659 4.35596 128.428 4.35596ZM172.334 4.94308V27.1896H190.904V21.9991H179.626V18.5074H188.803V13.3164H179.626V10.134H190.472V4.94308H172.334ZM145.051 4.94308V27.1896H152.343V19.4344H154.506C157.534 19.4344 158.461 20.0216 158.461 23.1729C158.461 25.027 158.615 26.6029 158.832 27.1896H166.217V26.5101C165.784 26.5101 165.568 26.2319 165.506 25.6758C165.444 25.027 165.444 23.8528 165.444 23.0184C165.444 19.4034 165.011 17.7041 161.674 16.7154C164.115 16.0355 165.413 14.089 165.413 11.2772C165.413 6.55002 162.262 4.94308 155.773 4.94308H145.051ZM90.4238 4.94308V27.1896H97.7156V18.5691H104.606V27.1896H111.898V4.94308H104.606V12.4515H97.7156V4.94308H90.4238ZM124.072 15.9427C124.072 12.2349 125.555 9.7941 128.459 9.7941C131.209 9.7941 132.816 12.297 132.816 15.9738C132.816 20.0832 131.271 22.3386 128.428 22.3386C125.586 22.3386 124.072 19.8978 124.072 15.9427ZM152.343 14.5524V10.134H155.68C157.534 10.134 158.677 10.9373 158.677 12.4515C158.677 14.058 157.349 14.5524 155.371 14.5524H152.343Z" fill="#325497"/>
<path d="M86.2281 39.4945V51.913H87.7065V47.2863H87.741C87.9037 47.5534 88.1034 47.7764 88.3411 47.9563C88.5788 48.1357 88.8311 48.2777 89.0977 48.3821C89.3643 48.4865 89.634 48.562 89.9066 48.6081C90.1788 48.6547 90.4256 48.678 90.6456 48.678C91.3298 48.678 91.9298 48.5564 92.4458 48.3126C92.9617 48.0693 93.3909 47.7358 93.733 47.3126C94.0751 46.8895 94.3301 46.3938 94.4983 45.8256C94.6661 45.2575 94.7502 44.6544 94.7502 44.0168C94.7502 43.3788 94.6635 42.7761 94.4893 42.208C94.3154 41.6398 94.0574 41.1381 93.7153 40.7033C93.3733 40.2684 92.9445 39.9238 92.4285 39.6684C91.9126 39.4134 91.3065 39.2857 90.6111 39.2857C89.9847 39.2857 89.4109 39.3987 88.8889 39.6252C88.3674 39.8513 87.9848 40.2136 87.741 40.7119H87.7065V39.4945H86.2281ZM73.2532 39.8077H74.9054C74.8127 39.1468 74.6155 38.564 74.314 38.0597C74.0124 37.5554 73.6358 37.1348 73.1837 36.7987C72.7312 36.4627 72.2153 36.2073 71.6355 36.0335C71.0561 35.8596 70.4414 35.7725 69.7921 35.7725C68.8414 35.7725 67.9976 35.9437 67.2616 36.2858C66.5252 36.6279 65.9105 37.0942 65.4178 37.6857C64.9252 38.2771 64.5512 38.9699 64.2958 39.7641C64.0408 40.5583 63.9136 41.4077 63.9136 42.3124C63.9136 43.2166 64.0322 44.063 64.2699 44.8516C64.5076 45.6401 64.8644 46.3239 65.3398 46.9037C65.8151 47.4835 66.4122 47.9386 67.1309 48.2691C67.85 48.5995 68.6904 48.7647 69.6528 48.7647C71.2416 48.7647 72.4935 48.3299 73.4098 47.4606C74.3256 46.5909 74.8649 45.3731 75.0271 43.808H73.3748C73.3403 44.3184 73.2359 44.7937 73.0617 45.2342C72.8878 45.6747 72.6475 46.0547 72.3399 46.3735C72.0328 46.6923 71.6674 46.9417 71.2442 47.1211C70.821 47.301 70.337 47.3907 69.7921 47.3907C69.0501 47.3907 68.4121 47.2518 67.8789 46.9736C67.3453 46.6953 66.9079 46.3213 66.5658 45.8515C66.2237 45.3822 65.9713 44.8313 65.8091 44.1993C65.6469 43.5673 65.5658 42.8978 65.5658 42.1903C65.5658 41.541 65.6469 40.9151 65.8091 40.312C65.9713 39.7089 66.2237 39.1727 66.5658 38.7033C66.9079 38.2336 67.3427 37.8595 67.8703 37.5813C68.3979 37.303 69.0325 37.1641 69.7744 37.1641C70.6441 37.1641 71.3952 37.3841 72.0272 37.825C72.6587 38.2655 73.0677 38.9264 73.2532 39.8077ZM84.6281 48.452C84.3727 48.6025 84.019 48.678 83.5669 48.678C83.1842 48.678 82.8801 48.5706 82.6536 48.3562C82.4276 48.1418 82.3145 47.7911 82.3145 47.304C81.909 47.7911 81.4362 48.1418 80.897 48.3562C80.3582 48.5706 79.7754 48.678 79.1494 48.678C78.7435 48.678 78.3578 48.6314 77.9924 48.5387C77.6275 48.4459 77.3113 48.301 77.0447 48.1038C76.7781 47.9067 76.5663 47.6487 76.4101 47.3299C76.2535 47.0111 76.175 46.6254 76.175 46.1733C76.175 45.663 76.2621 45.2459 76.436 44.921C76.6098 44.5966 76.8389 44.3326 77.1232 44.1298C77.407 43.9267 77.7319 43.7731 78.0968 43.6687C78.4622 43.5643 78.8362 43.4776 79.2189 43.4081C79.6248 43.3266 80.0101 43.2658 80.3755 43.2252C80.7408 43.1847 81.0622 43.1268 81.3409 43.0514C81.6192 42.9759 81.8392 42.8659 82.0018 42.7209C82.164 42.576 82.2451 42.3646 82.2451 42.0859C82.2451 41.7615 82.1843 41.5005 82.0626 41.3033C81.9405 41.1062 81.7844 40.9556 81.5928 40.8512C81.4017 40.7469 81.1869 40.6774 80.9492 40.6425C80.7115 40.6075 80.4768 40.5903 80.2452 40.5903C79.6188 40.5903 79.0972 40.7093 78.6797 40.947C78.2621 41.1847 78.036 41.6338 78.0015 42.2947H76.5231C76.546 41.7382 76.662 41.2688 76.8708 40.8862C77.0796 40.5035 77.3579 40.1934 77.7056 39.9557C78.0537 39.718 78.4506 39.5467 78.8971 39.4423C79.3436 39.3379 79.8215 39.2857 80.3319 39.2857C80.7378 39.2857 81.1407 39.3151 81.5406 39.3729C81.9405 39.4307 82.3029 39.5497 82.6277 39.7292C82.9526 39.9091 83.2131 40.1615 83.4103 40.4859C83.6074 40.8107 83.7062 41.2339 83.7062 41.7554V46.3821C83.7062 46.7298 83.7265 46.9852 83.767 47.1474C83.8076 47.3096 83.9439 47.3907 84.1756 47.3907C84.3033 47.3907 84.4538 47.3618 84.6281 47.304V48.452ZM184.757 45.6518H183.279C183.301 46.2083 183.417 46.6807 183.626 47.0689C183.835 47.4576 184.113 47.7708 184.461 48.0085C184.809 48.2462 185.209 48.417 185.661 48.5214C186.113 48.6258 186.589 48.678 187.087 48.678C187.539 48.678 187.995 48.6344 188.453 48.5473C188.911 48.4606 189.322 48.307 189.688 48.0866C190.053 47.8661 190.349 47.5762 190.575 47.2169C190.801 46.8575 190.914 46.4054 190.914 45.8602C190.914 45.4313 190.83 45.072 190.661 44.7821C190.494 44.4922 190.273 44.2515 190 44.0599C189.728 43.8688 189.415 43.7153 189.061 43.5992C188.708 43.4832 188.345 43.3848 187.974 43.3037C187.627 43.2226 187.279 43.1441 186.931 43.0686C186.583 42.9935 186.27 42.9008 185.992 42.7904C185.713 42.6804 185.484 42.541 185.305 42.3732C185.125 42.205 185.035 41.9931 185.035 41.7382C185.035 41.5065 185.093 41.318 185.209 41.1731C185.325 41.0281 185.476 40.9121 185.661 40.8249C185.847 40.7382 186.052 40.6774 186.278 40.6425C186.505 40.6075 186.728 40.5903 186.948 40.5903C187.192 40.5903 187.432 40.6166 187.67 40.6688C187.908 40.721 188.125 40.8047 188.322 40.9207C188.52 41.0367 188.682 41.1903 188.809 41.3819C188.937 41.573 189.012 41.8137 189.035 42.1036H190.514C190.479 41.5583 190.363 41.1036 190.166 40.7382C189.969 40.3728 189.705 40.0829 189.375 39.8685C189.044 39.6541 188.664 39.5031 188.235 39.4164C187.806 39.3293 187.337 39.2857 186.826 39.2857C186.432 39.2857 186.035 39.3353 185.635 39.4337C185.235 39.5325 184.876 39.683 184.557 39.8858C184.238 40.089 183.977 40.3526 183.774 40.6774C183.571 41.0018 183.47 41.3905 183.47 41.8426C183.47 42.4224 183.615 42.8745 183.905 43.1993C184.194 43.5237 184.557 43.7761 184.992 43.956C185.426 44.1354 185.899 44.2748 186.409 44.3731C186.919 44.4719 187.392 44.5819 187.827 44.7036C188.262 44.8252 188.624 44.9849 188.914 45.182C189.203 45.3791 189.348 45.669 189.348 46.0517C189.348 46.3299 189.279 46.559 189.14 46.7385C189.001 46.9184 188.824 47.0547 188.609 47.1474C188.395 47.2402 188.16 47.304 187.905 47.3385C187.65 47.3735 187.406 47.3907 187.174 47.3907C186.873 47.3907 186.58 47.3618 186.296 47.304C186.012 47.2458 185.757 47.1505 185.531 47.0167C185.305 46.8834 185.122 46.704 184.983 46.4779C184.844 46.2514 184.769 45.9762 184.757 45.6518ZM176.043 45.6341H174.582C174.454 46.2255 174.191 46.666 173.791 46.9559C173.391 47.2458 172.878 47.3907 172.251 47.3907C171.765 47.3907 171.342 47.3096 170.982 47.1474C170.622 46.9852 170.327 46.7678 170.095 46.4952C169.863 46.2225 169.695 45.9098 169.591 45.556C169.486 45.2023 169.44 44.8283 169.451 44.434H176.182C176.205 43.8891 176.156 43.3154 176.034 42.7123C175.913 42.1092 175.693 41.5527 175.373 41.0424C175.055 40.5324 174.631 40.1118 174.104 39.7814C173.576 39.4509 172.913 39.2857 172.112 39.2857C171.498 39.2857 170.933 39.4018 170.417 39.6339C169.901 39.8655 169.454 40.1904 169.078 40.6075C168.701 41.0251 168.408 41.5177 168.199 42.0859C167.99 42.654 167.886 43.2804 167.886 43.9646C167.909 44.6488 168.011 45.2804 168.19 45.8602C168.37 46.4399 168.64 46.9386 168.999 47.3562C169.358 47.7734 169.802 48.0982 170.329 48.3299C170.857 48.562 171.48 48.678 172.2 48.678C173.22 48.678 174.066 48.4226 174.739 47.9127C175.411 47.4024 175.846 46.6431 176.043 45.6341ZM144.145 48.452C143.89 48.6025 143.536 48.678 143.084 48.678C142.702 48.678 142.397 48.5706 142.171 48.3562C141.945 48.1418 141.832 47.7911 141.832 47.304C141.426 47.7911 140.953 48.1418 140.414 48.3562C139.875 48.5706 139.293 48.678 138.667 48.678C138.261 48.678 137.875 48.6314 137.51 48.5387C137.145 48.4459 136.829 48.301 136.562 48.1038C136.295 47.9067 136.084 47.6487 135.927 47.3299C135.771 47.0111 135.692 46.6254 135.692 46.1733C135.692 45.663 135.779 45.2459 135.953 44.921C136.127 44.5966 136.356 44.3326 136.64 44.1298C136.924 43.9267 137.249 43.7731 137.614 43.6687C137.979 43.5643 138.354 43.4776 138.736 43.4081C139.142 43.3266 139.527 43.2658 139.893 43.2252C140.258 43.1847 140.58 43.1268 140.858 43.0514C141.136 42.9759 141.356 42.8659 141.519 42.7209C141.681 42.576 141.762 42.3646 141.762 42.0859C141.762 41.7615 141.702 41.5005 141.58 41.3033C141.458 41.1062 141.302 40.9556 141.11 40.8512C140.919 40.7469 140.704 40.6774 140.466 40.6425C140.229 40.6075 139.994 40.5903 139.762 40.5903C139.136 40.5903 138.615 40.7093 138.197 40.947C137.779 41.1847 137.553 41.6338 137.519 42.2947H136.04C136.063 41.7382 136.179 41.2688 136.388 40.8862C136.597 40.5035 136.875 40.1934 137.223 39.9557C137.571 39.718 137.968 39.5467 138.414 39.4423C138.861 39.3379 139.339 39.2857 139.849 39.2857C140.255 39.2857 140.658 39.3151 141.058 39.3729C141.458 39.4307 141.82 39.5497 142.145 39.7292C142.47 39.9091 142.73 40.1615 142.928 40.4859C143.125 40.8107 143.223 41.2339 143.223 41.7554V46.3821C143.223 46.7298 143.244 46.9852 143.284 47.1474C143.325 47.3096 143.461 47.3907 143.693 47.3907C143.821 47.3907 143.971 47.3618 144.145 47.304V48.452ZM114.491 48.452C114.236 48.6025 113.882 48.678 113.43 48.678C113.047 48.678 112.743 48.5706 112.517 48.3562C112.291 48.1418 112.178 47.7911 112.178 47.304C111.772 47.7911 111.299 48.1418 110.76 48.3562C110.221 48.5706 109.638 48.678 109.012 48.678C108.607 48.678 108.221 48.6314 107.855 48.5387C107.491 48.4459 107.174 48.301 106.908 48.1038C106.641 47.9067 106.429 47.6487 106.273 47.3299C106.117 47.0111 106.038 46.6254 106.038 46.1733C106.038 45.663 106.125 45.2459 106.299 44.921C106.473 44.5966 106.702 44.3326 106.986 44.1298C107.27 43.9267 107.595 43.7731 107.96 43.6687C108.325 43.5643 108.699 43.4776 109.082 43.4081C109.487 43.3266 109.873 43.2658 110.238 43.2252C110.604 43.1847 110.925 43.1268 111.204 43.0514C111.482 42.9759 111.702 42.8659 111.865 42.7209C112.027 42.576 112.108 42.3646 112.108 42.0859C112.108 41.7615 112.047 41.5005 111.926 41.3033C111.804 41.1062 111.647 40.9556 111.456 40.8512C111.265 40.7469 111.05 40.6774 110.812 40.6425C110.575 40.6075 110.34 40.5903 110.108 40.5903C109.482 40.5903 108.96 40.7093 108.543 40.947C108.125 41.1847 107.899 41.6338 107.865 42.2947H106.386C106.409 41.7382 106.525 41.2688 106.734 40.8862C106.943 40.5035 107.221 40.1934 107.569 39.9557C107.916 39.718 108.314 39.5467 108.76 39.4423C109.207 39.3379 109.685 39.2857 110.195 39.2857C110.601 39.2857 111.004 39.3151 111.404 39.3729C111.804 39.4307 112.166 39.5497 112.491 39.7292C112.816 39.9091 113.076 40.1615 113.273 40.4859C113.47 40.8107 113.569 41.2339 113.569 41.7554V46.3821C113.569 46.7298 113.59 46.9852 113.63 47.1474C113.671 47.3096 113.807 47.3907 114.039 47.3907C114.166 47.3907 114.317 47.3618 114.491 47.304V48.452ZM125.674 36.0684V48.4865H127.327V43.4081H131.118C132.371 43.4193 133.318 43.1005 133.962 42.4513C134.605 41.802 134.927 40.8974 134.927 39.7383C134.927 38.5787 134.605 37.6771 133.962 37.0334C133.318 36.3902 132.371 36.0684 131.118 36.0684H125.674ZM96.5768 39.4945V48.4865H98.0551V39.4945H96.5768ZM116.126 36.0684V48.4865H117.604V36.0684H116.126ZM145.989 39.4945V48.4865H147.467V44.4862C147.467 43.9064 147.525 43.3934 147.641 42.947C147.757 42.5005 147.942 42.1208 148.198 41.8076C148.453 41.4949 148.789 41.2572 149.206 41.0946C149.624 40.9324 150.128 40.8512 150.72 40.8512V39.2857C149.92 39.2629 149.259 39.4251 148.737 39.7728C148.215 40.1209 147.774 40.6597 147.415 41.3905H147.38V39.4945H145.989ZM177.834 39.4945V48.4865H179.313V44.4862C179.313 43.9064 179.371 43.3934 179.487 42.947C179.603 42.5005 179.788 42.1208 180.044 41.8076C180.299 41.4949 180.635 41.2572 181.052 41.0946C181.47 40.9324 181.974 40.8512 182.565 40.8512V39.2857C181.765 39.2629 181.104 39.4251 180.582 39.7728C180.061 40.1209 179.62 40.6597 179.261 41.3905H179.226V39.4945H177.834ZM102.925 39.4945V36.7987H101.446V39.4945H99.9157V40.7991H101.446V46.521C101.446 46.9386 101.487 47.2747 101.568 47.5301C101.649 47.785 101.774 47.9822 101.942 48.1215C102.11 48.2604 102.331 48.3562 102.603 48.4084C102.875 48.4606 103.203 48.4865 103.586 48.4865H104.716V47.1819H104.038C103.806 47.1819 103.617 47.1733 103.473 47.1561C103.328 47.1388 103.215 47.1008 103.133 47.043C103.052 46.9852 102.997 46.9037 102.968 46.7993C102.939 46.6953 102.925 46.556 102.925 46.3821V40.7991H104.716V39.4945H102.925ZM155.103 39.4945V36.7987H153.624V39.4945H152.094V40.7991H153.624V46.521C153.624 46.9386 153.665 47.2747 153.746 47.5301C153.827 47.785 153.952 47.9822 154.12 48.1215C154.288 48.2604 154.508 48.3562 154.781 48.4084C155.053 48.4606 155.381 48.4865 155.764 48.4865H156.894V47.1819H156.216C155.984 47.1819 155.795 47.1733 155.651 47.1561C155.506 47.1388 155.392 47.1008 155.311 47.043C155.23 46.9852 155.175 46.9037 155.146 46.7993C155.117 46.6953 155.103 46.556 155.103 46.3821V40.7991H156.894V39.4945H155.103ZM158.876 39.4945V48.4865H160.355V43.4081C160.355 43.0022 160.41 42.6282 160.52 42.2861C160.631 41.944 160.796 41.6454 161.016 41.3905C161.236 41.1351 161.511 40.9384 161.842 40.7991C162.173 40.6597 162.564 40.5903 163.016 40.5903C163.584 40.5903 164.031 40.7525 164.355 41.0773C164.68 41.4021 164.842 41.8426 164.842 42.3991V48.4865H166.321V42.5729C166.321 42.0859 166.271 41.6424 166.173 41.2425C166.074 40.8426 165.903 40.4975 165.66 40.2076C165.416 39.9177 165.098 39.6917 164.703 39.5295C164.309 39.3673 163.816 39.2857 163.225 39.2857C161.891 39.2857 160.917 39.831 160.303 40.9207H160.268V39.4945H158.876ZM93.1852 43.9124C93.1852 44.3529 93.1386 44.7821 93.0458 45.1993C92.9531 45.6168 92.8025 45.9878 92.5937 46.3127C92.3849 46.6371 92.1097 46.8981 91.7676 47.0952C91.4255 47.2924 90.9993 47.3907 90.489 47.3907C89.9791 47.3907 89.5442 47.2954 89.1849 47.1039C88.8251 46.9128 88.5326 46.6604 88.3066 46.3472C88.0805 46.0344 87.9149 45.6721 87.8109 45.2601C87.7065 44.8485 87.6543 44.4223 87.6543 43.9819C87.6543 43.5643 87.7035 43.1527 87.8018 42.7472C87.9006 42.3413 88.0598 41.9789 88.2803 41.6601C88.5007 41.3413 88.7845 41.0829 89.1327 40.8862C89.4804 40.689 89.9036 40.5903 90.4023 40.5903C90.8777 40.5903 91.2922 40.683 91.646 40.8685C91.9993 41.054 92.2892 41.3033 92.5152 41.6165C92.7417 41.9297 92.9095 42.2861 93.0199 42.686C93.13 43.0863 93.1852 43.4948 93.1852 43.9124ZM141.745 43.843C141.56 43.9819 141.316 44.0832 141.014 44.1471C140.713 44.2109 140.397 44.2631 140.067 44.3037C139.736 44.3442 139.403 44.3908 139.067 44.4426C138.73 44.4948 138.429 44.5789 138.162 44.695C137.895 44.811 137.678 44.9762 137.51 45.1906C137.342 45.405 137.258 45.6979 137.258 46.0689C137.258 46.3127 137.307 46.5185 137.406 46.6863C137.504 46.8545 137.632 46.9908 137.788 47.0952C137.945 47.1996 138.127 47.2747 138.336 47.3213C138.545 47.3679 138.765 47.3907 138.997 47.3907C139.484 47.3907 139.901 47.3243 140.249 47.191C140.597 47.0577 140.881 46.8895 141.101 46.6863C141.322 46.4835 141.484 46.2631 141.589 46.0254C141.693 45.7877 141.745 45.5646 141.745 45.3559V43.843ZM82.2278 43.843C82.0423 43.9819 81.7986 44.0832 81.4971 44.1471C81.196 44.2109 80.8797 44.2631 80.5493 44.3037C80.2189 44.3442 79.8854 44.3908 79.5493 44.4426C79.2129 44.4948 78.9117 44.5789 78.6447 44.695C78.3781 44.811 78.1607 44.9762 77.9924 45.1906C77.8246 45.405 77.7405 45.6979 77.7405 46.0689C77.7405 46.3127 77.7897 46.5185 77.8885 46.6863C77.9868 46.8545 78.1145 46.9908 78.2711 47.0952C78.4273 47.1996 78.6102 47.2747 78.8186 47.3213C79.0274 47.3679 79.2478 47.3907 79.4799 47.3907C79.9665 47.3907 80.3841 47.3243 80.7318 47.191C81.0799 47.0577 81.3638 46.8895 81.5842 46.6863C81.8046 46.4835 81.9669 46.2631 82.0712 46.0254C82.1756 45.7877 82.2278 45.5646 82.2278 45.3559V43.843ZM112.091 43.843C111.905 43.9819 111.662 44.0832 111.36 44.1471C111.059 44.2109 110.743 44.2631 110.412 44.3037C110.082 44.3442 109.748 44.3908 109.412 44.4426C109.076 44.4948 108.774 44.5789 108.508 44.695C108.241 44.811 108.024 44.9762 107.855 45.1906C107.688 45.405 107.604 45.6979 107.604 46.0689C107.604 46.3127 107.653 46.5185 107.751 46.6863C107.85 46.8545 107.978 46.9908 108.134 47.0952C108.29 47.1996 108.473 47.2747 108.682 47.3213C108.89 47.3679 109.111 47.3907 109.342 47.3907C109.83 47.3907 110.247 47.3243 110.595 47.191C110.943 47.0577 111.227 46.8895 111.447 46.6863C111.668 46.4835 111.83 46.2631 111.934 46.0254C112.039 45.7877 112.091 45.5646 112.091 45.3559V43.843ZM174.617 43.1299H169.451C169.474 42.7817 169.55 42.4543 169.677 42.1472C169.805 41.8396 169.979 41.57 170.199 41.3383C170.42 41.1062 170.683 40.9237 170.99 40.7904C171.298 40.6571 171.643 40.5903 172.025 40.5903C172.396 40.5903 172.736 40.6571 173.043 40.7904C173.35 40.9237 173.617 41.1036 173.843 41.3297C174.069 41.5557 174.249 41.8253 174.382 42.1381C174.515 42.4513 174.594 42.7817 174.617 43.1299ZM127.327 42.0164V37.4596H130.562C131.501 37.4596 132.188 37.6538 132.622 38.0424C133.057 38.4307 133.275 38.9958 133.275 39.7383C133.275 40.4802 133.057 41.0484 132.622 41.4427C132.188 41.837 131.501 42.0281 130.562 42.0164H127.327ZM98.0551 37.8772V36.0684H96.5768V37.8772H98.0551Z" fill="#C8C8C8"/>
<path fill-rule="evenodd" clip-rule="evenodd" d="M19.77 8.0293L1.1416 26.6577L22.914 48.43C25.5146 45.2236 27.5438 41.4513 27.7809 37.2785C28.1157 30.8201 24.7185 26.39 22.0959 22.2912C21.3046 21.0547 20.5807 19.8427 20.0067 18.6238C19.2136 17.1378 18.6936 15.5981 18.6095 13.9233C18.5114 11.9713 18.967 9.9736 19.77 8.0293Z" fill="#C8C8C8"/>
<path fill-rule="evenodd" clip-rule="evenodd" d="M51.5753 26.658L27.4599 2.54248C27.0815 2.91578 26.7067 3.301 26.3388 3.69725C23.8083 6.42422 21.5793 9.6694 21.3894 13.0228C21.3026 14.5562 21.695 15.9877 22.3492 17.3998C23.3966 19.3855 25.0716 21.2338 26.7157 23.2798C29.6543 26.9365 32.5802 31.1018 32.9079 37.0823C32.9082 37.0843 32.9082 37.0864 32.9082 37.0885C33.1037 40.9816 31.9353 44.7319 30.1058 48.1273L51.5753 26.658Z" fill="#325497"/>
<path fill-rule="evenodd" clip-rule="evenodd" d="M20.0068 18.624C20.5808 19.8429 21.3047 21.0549 22.096 22.2914C24.7186 26.3902 28.1158 30.8202 27.781 37.2787C27.4894 42.4118 24.4858 46.9388 21.0429 50.5519C15.7116 56.1466 9.25135 59.5644 9.25135 59.5644C8.77787 59.8145 8.4985 60.3223 8.54084 60.8563C8.58318 61.39 8.93858 61.8477 9.44545 62.0203L14.4945 63.741C14.6164 63.7827 14.7437 63.8063 14.8722 63.8117L14.9274 63.8129L15.6773 63.5839C15.6773 63.5839 22.0922 59.2626 27.0708 52.7753C30.4874 48.3234 33.1983 42.8626 32.9082 37.0885C32.9082 37.0864 32.9082 37.0843 32.9079 37.0822C32.5802 31.1017 29.6543 26.9364 26.7157 23.2798C25.0716 21.2338 23.3966 19.3855 22.3492 17.3998C21.695 15.9877 21.3026 14.5562 21.3894 13.0228C21.5793 9.66935 23.8083 6.42418 26.3388 3.6972C30.335 -0.609125 35.195 -3.60951 35.195 -3.60951C35.653 -3.89246 35.8978 -4.42139 35.8167 -4.95361C35.7353 -5.48583 35.3438 -5.91816 34.8223 -6.05144L32.7549 -6.57948C32.3536 -6.68175 31.9278 -6.5932 31.6004 -6.33946C31.6004 -6.33946 26.8034 -2.61962 23.0674 2.38381C20.4594 5.87675 18.4123 9.99256 18.6097 13.9235C18.6937 15.5983 19.2137 17.138 20.0068 18.624Z" fill="white"/>
</g>
<defs>
<clipPath id="clip0_81_3577">
<rect width="190.676" height="51.7672" fill="white" transform="translate(0.670898 0.616211)"/>
</clipPath>
</defs>
</svg>
