<?xml version="1.0" encoding="utf-8"?>
<!-- Generator: Adobe Illustrator 24.3.0, SVG Export Plug-In . SVG Version: 6.00 Build 0)  -->
<svg version="1.1" id="Layer_1" xmlns="http://www.w3.org/2000/svg" xmlns:xlink="http://www.w3.org/1999/xlink" x="0px" y="0px"
	 viewBox="0 0 1260 185.7" style="enable-background:new 0 0 1260 185.7;" xml:space="preserve">
<style type="text/css">
	.st0{clip-path:url(#SVGID_2_);}
	.st1{clip-path:url(#SVGID_4_);}
	.st2{fill:#323E48;}
	.st3{clip-path:url(#SVGID_6_);}
	.st4{fill:url(#SVGID_7_);}
	.st5{clip-path:url(#SVGID_9_);}
	.st6{fill:url(#SVGID_10_);}
</style>
<g id="Layer_2_1_">
	<g id="Layer_1-2">
		<g id="RGB-Gradient-Logo-Horz-R">
			<g>
				<g>
					<g>
						<defs>
							<rect id="SVGID_1_" width="800" height="185.7"/>
						</defs>
						<clipPath id="SVGID_2_">
							<use xlink:href="#SVGID_1_"  style="overflow:visible;"/>
						</clipPath>
						<g class="st0">
							<g>
								<g>
									<g>
										<defs>
											<rect id="SVGID_3_" width="800" height="185.7"/>
										</defs>
										<clipPath id="SVGID_4_">
											<use xlink:href="#SVGID_3_"  style="overflow:visible;"/>
										</clipPath>
										<g class="st1">
											<path class="st2" d="M800,66.7c0,3.4-2.8,6.1-6.2,6c-3.4,0-6.1-2.8-6-6.2c0-3.3,2.8-6,6.1-6
												C797.3,60.5,800,63.3,800,66.7L800,66.7 M799,66.7c0-2.8-2.3-5-5.1-4.9c-2.8,0-5,2.3-4.9,5.1c0,2.7,2.2,4.9,4.9,4.9
												C796.8,71.8,799,69.5,799,66.7L799,66.7 M794.9,67.6l1.5,2.2h-1.2l-1.5-2.1H793v2.1h-1.1v-6h2.3c1-0.1,1.9,0.6,2,1.6
												c0,0.1,0,0.2,0,0.3C796.2,66.8,795.8,67.4,794.9,67.6 M793,66.8h1.2c0.5,0,0.9-0.4,0.9-0.9s-0.4-0.9-0.9-0.9H793
												L793,66.8L793,66.8z"/>
											<path class="st2" d="M424.8,94.1l-13.4-33.4h-22.7l25.5,56.9L398.3,157h21.9L460,60.7h-22L424.8,94.1z M465.8,125.2h20.5
												V26.7h-20.5V125.2z M528.9,59.1c-18.7-0.7-34.3,13.9-35,32.6l0,0c0,0.4,0,0.8,0,1.2c0.1,18.6,15.2,33.7,33.9,33.7h1.1
												c18.7,0.7,34.4-13.9,35.1-32.7c0-0.3,0-0.7,0-1C563.9,74.1,548.7,59,530,59C529.6,59,529.3,59,528.9,59.1 M528.9,107.4
												c-7.7,0.2-14.1-6-14.3-13.7c0-0.3,0-0.6,0-1C514.3,85,520.2,78.4,528,78c0.3,0,0.6,0,0.8,0c7.8-0.1,14.2,6.2,14.3,13.9
												c0,0,0,0,0,0.1c0,0.3,0,0.6,0,0.8c0.4,7.7-5.6,14.3-13.3,14.7l0,0C529.5,107.5,529.2,107.5,528.9,107.4 M606.3,78
												c4.8,0.1,9.4,2.4,12.3,6.2l15.8-10c-6.2-9.6-16.8-15.3-28.2-15.2c-18.8,0-35.6,13.1-35.6,33.6s16.8,33.8,35.6,33.8
												c11.4,0.1,22.1-5.6,28.2-15.2l-15.8-10c-2.9,3.9-7.5,6.2-12.3,6.2c-7.8,0.4-14.5-5.6-14.9-13.4l0,0c0-0.5,0-0.9,0-1.4
												c-0.2-7.8,5.9-14.3,13.6-14.6C605.4,78,605.9,78,606.3,78 M652.2,27.1c-6.8-0.3-12.5,5-12.8,11.8c0,0,0,0,0,0.1l0,0
												c0.3,6.8,6,12.1,12.7,11.9c6.7,0.1,12.3-5.2,12.4-11.9c0-6.6-5.5-12-12.1-11.9c0,0,0,0-0.1,0H652.2 M641.8,125.2h20.5
												V60.7h-20.5V125.2z M683.3,37.5v23.3h-11.8v15.4h11.8v49.2h20.5V76.1h16.8l18.6,41.5L723.3,157h21.9l39.9-96.3h-22
												l-13.2,33.4l-13.4-33.4h-32.7V37.5H683.3z M274,59.1c-7.6-0.2-14.9,2.9-20,8.6v-6.9h-20.5v96.3H254v-39.2
												c5.1,5.6,12.4,8.7,20,8.4c17.6-0.2,31.7-14.6,31.5-32.2c0-0.5,0-0.9,0-1.4c0.9-17.6-12.6-32.6-30.2-33.6
												C274.8,59.1,274.4,59.1,274,59.1 M269.7,107.4c-8.1-0.2-14.5-6.8-14.3-14.9s6.8-14.5,14.9-14.3
												c7.9,0.2,14.2,6.6,14.3,14.5C284.5,100.9,277.8,107.4,269.7,107.4 M362.4,67.8c-5.1-5.7-12.4-8.8-20.1-8.6
												C324.7,59.5,310.7,74,311,91.6l0,0c0,0.4,0,0.8,0,1.3c-1,17.6,12.4,32.6,30,33.6h1.3c7.6,0.2,14.9-3,20.1-8.6v7.3h20.4
												V60.7h-20.3L362.4,67.8L362.4,67.8z M346.8,107.4c-8-0.2-14.4-6.8-14.2-14.8s6.8-14.4,14.8-14.2
												c7.9,0.2,14.3,6.6,14.2,14.5C361.4,100.9,354.8,107.4,346.8,107.4"/>
										</g>
									</g>
								</g>
							</g>
							<g>
								<g>
									<g>
										<defs>
											<path id="SVGID_5_" d="M0.9,101.5c-0.5,0.1-0.9,0.5-0.9,1v0.1v0.1v0.2c9.7,48.1,37.3,82.9,69.9,82.9
												c10.4,0,42.8,0,53.7-70.5c0.2-1.3-1.4-1.8-1.8-0.6c-5.1,17.3-15.4,45.4-28.5,45.4c-9.4,0-20.3-14.5-31.7-57.9
												c-0.1-0.4-0.4-0.7-0.9-0.8L0.9,101.5z M132.4,101.5c-0.5,0-0.9,0.4-0.9,0.9c-3.7,37.1-13.2,64.1-29.5,79
												c-0.5,0.4-0.5,1.2-0.1,1.6l0,0c0.1,0.1,0.2,0.2,0.3,0.3c4.7,1.5,9.6,2.3,14.5,2.3c32.8,0,60.4-35.4,69.9-83.1
												c0-0.6-0.4-1-0.9-1.1l0,0L132.4,101.5z"/>
										</defs>
										<clipPath id="SVGID_6_">
											<use xlink:href="#SVGID_5_"  style="overflow:visible;"/>
										</clipPath>
										<g class="st3">
											
												<linearGradient id="SVGID_7_" gradientUnits="userSpaceOnUse" x1="469.6671" y1="421.5046" x2="471.8271" y2="421.5046" gradientTransform="matrix(-79.35 0 0 -79.35 37444.418 33589.9414)">
												<stop  offset="0" style="stop-color:#FF8F1C"/>
												<stop  offset="1" style="stop-color:#ED2024"/>
											</linearGradient>
											<rect y="101.4" class="st4" width="186.8" height="84.3"/>
										</g>
									</g>
								</g>
							</g>
							<g>
								<g>
									<g>
										<defs>
											<path id="SVGID_8_" d="M0,83.2L0,83.2c0,0.6,0.4,1,0.9,1.1h53.4c0.5,0,0.9-0.4,0.9-0.9c3.8-37.1,13.2-64.1,29.5-79
												c0.5-0.5,0.5-1.2,0-1.7l0,0c-0.1-0.1-0.2-0.2-0.3-0.2C79.7,1,74.8,0.2,69.9,0.2C37.2,0.1,9.5,35.5,0,83.2 M116.8,0
												C106.4,0,74,0,63.1,70.5c-0.2,1.3,1.4,1.8,1.8,0.6C70,53.7,80.3,25.6,93.4,25.6c9.4,0,20.3,14.5,31.7,57.9
												c0.1,0.4,0.4,0.7,0.9,0.8h59.8c0.6-0.1,1-0.6,0.9-1.2l0,0v-0.2C177,34.8,149.4,0,116.8,0z"/>
										</defs>
										<clipPath id="SVGID_9_">
											<use xlink:href="#SVGID_8_"  style="overflow:visible;"/>
										</clipPath>
										<g class="st5">
											
												<linearGradient id="SVGID_10_" gradientUnits="userSpaceOnUse" x1="459.2129" y1="433.7999" x2="461.3729" y2="433.7999" gradientTransform="matrix(79.35 0 0 79.35 -36428.0195 -34379.8711)">
												<stop  offset="0" style="stop-color:#FF8F1C"/>
												<stop  offset="0" style="stop-color:#FF8F1C"/>
												<stop  offset="1" style="stop-color:#ED2024"/>
											</linearGradient>
											<rect class="st6" width="186.8" height="84.3"/>
										</g>
									</g>
								</g>
							</g>
						</g>
					</g>
				</g>
			</g>
		</g>
	</g>
</g>
</svg>
