<svg width="121" height="72" viewBox="0 0 121 72" fill="none" xmlns="http://www.w3.org/2000/svg">
<path d="M105.304 71.4219V71.4297H0L11.1627 12.6877L22.1079 10.9554L34.3503 9.02115L35.8806 8.78034L47.0278 7.02476L88.7578 0.429688L95.0033 27.2372L95.7956 30.6241L96.518 33.7158L105.304 71.4219Z" fill="#F5CB9D"/>
<g filter="url(#filter0_d_16948_22334)">
<path d="M89.659 71.4297H18.3562C18.2319 70.3344 18.1152 69.2157 17.9987 68.0738C15.8159 46.4398 13.3379 16.5405 13.3379 16.5405H21.9527H32.7349H37.4966H48.6903L84.1827 16.6338C84.2707 21.9316 84.4571 26.9783 84.742 31.7738C84.742 32.3175 84.804 32.8689 84.8428 33.4049C84.9128 34.6401 84.9983 35.8598 85.0837 37.0561C85.2313 39.0214 85.3866 40.94 85.5652 42.8043C85.7879 45.3057 86.0468 47.7292 86.342 50.0751C86.342 50.4946 86.4354 50.9064 86.482 51.3103C86.9791 55.4973 87.5384 59.4201 88.1443 63.1022C88.6311 66.054 89.136 68.83 89.659 71.4297Z" fill="white"/>
</g>
<g filter="url(#filter1_d_16948_22334)">
<path d="M27.2969 42.5247L55.8056 42.3228L56.0076 45.0493L27.4987 45.2591L27.2969 42.5247Z" fill="#1F5F7B"/>
<path d="M49.7465 50.4017L27.9493 50.6114L28.0813 53.338L49.8785 53.1283L49.7465 50.4017Z" fill="#1F5F7B"/>
</g>
<g filter="url(#filter2_d_16948_22334)">
<path d="M36.6035 27.5949C39.8696 27.2978 42.918 25.8302 45.1871 23.4624L51.0986 34.2832L44.69 32.7296L42.7557 38.8274L36.6035 27.5949Z" fill="url(#paint0_linear_16948_22334)"/>
<path d="M19.6846 34.2521L25.5804 23.5011C27.8649 25.85 30.9221 27.293 34.1875 27.5637L28.0352 38.7965L26.101 32.6985L19.6846 34.2521Z" fill="url(#paint1_linear_16948_22334)"/>
</g>
<g filter="url(#filter3_d_16948_22334)">
<path d="M35.3606 27.6489C42.877 27.6489 48.9702 21.5557 48.9702 14.0393C48.9702 6.52292 42.877 0.429688 35.3606 0.429688C27.8442 0.429688 21.751 6.52292 21.751 14.0393C21.751 21.5557 27.8442 27.6489 35.3606 27.6489Z" fill="url(#paint2_linear_16948_22334)"/>
</g>
<g filter="url(#filter4_i_16948_22334)">
<path fill-rule="evenodd" clip-rule="evenodd" d="M35.1975 6.66797C35.1534 6.66884 35.1109 6.68468 35.077 6.71292C35.0431 6.74115 35.0198 6.78007 35.011 6.82329C34.2342 10.7695 32.0437 13.2476 27.8567 13.9156C27.8207 13.9163 27.786 13.9288 27.7579 13.9513C27.7298 13.9738 27.7097 14.0049 27.7012 14.0398V14.0943C27.7082 14.1307 27.7276 14.1636 27.7558 14.1876C27.784 14.2116 27.8196 14.2252 27.8567 14.2263C32.0437 14.9176 34.2575 17.3957 35.011 21.3108C35.011 21.352 35.0274 21.3915 35.0565 21.4206C35.0857 21.4498 35.1251 21.4661 35.1664 21.4661C35.2076 21.4661 35.247 21.4498 35.2762 21.4206C35.3053 21.3915 35.3217 21.352 35.3217 21.3108C36.0985 17.3724 38.289 14.8943 42.476 14.2263C42.5131 14.2252 42.5487 14.2116 42.5769 14.1876C42.6052 14.1636 42.6245 14.1307 42.6315 14.0943V14.0398C42.623 14.0049 42.6029 13.9738 42.5748 13.9513C42.5467 13.9288 42.512 13.9163 42.476 13.9156C38.289 13.2165 36.0752 10.7462 35.3217 6.82329C35.3761 6.74561 35.3217 6.66797 35.1975 6.66797Z" fill="white"/>
</g>
<g filter="url(#filter5_d_16948_22334)">
<path d="M86.0462 43.0921C83.6304 41.8648 78.1617 39.6587 78.1617 39.6587C78.1617 39.6587 75.7147 40.6841 69.7411 43.7447C69.0802 44.0942 68.3949 44.3952 67.6904 44.6457C67.9157 45.2128 68.2496 45.578 68.6923 45.5236C70.3858 45.2906 79.2103 41.6396 79.2103 41.6396L76.8101 50.6971L78.8841 50.899C79.599 50.966 80.3146 50.7783 80.9045 50.369C81.4943 49.9596 81.9204 49.355 82.1078 48.6619V51.9633C83.185 51.9991 84.25 51.7255 85.1765 51.1748C86.103 50.6241 86.8523 49.8195 87.3357 48.8561C88.0193 47.52 88.7417 46.0674 89.1224 45.1819C88.2246 44.3139 87.184 43.6069 86.0462 43.0921Z" fill="#623721"/>
</g>
<g filter="url(#filter6_d_16948_22334)">
<path d="M120.506 71.4217H96.6893L93.4342 65.2072C93.4342 65.2072 77.1215 58.7986 72.0722 57.2217C67.8387 55.9166 67.5823 53.8036 67.4114 52.4675C67.3937 52.2391 67.3547 52.013 67.295 51.7918C67.1787 51.5205 67.0096 51.2748 66.7977 51.0692C66.5647 50.8284 66.2772 50.5565 65.9665 50.2924C64.8634 49.2515 63.5429 48.0086 64.0478 46.991C64.0979 46.8842 64.1663 46.7871 64.2498 46.7037L64.3897 46.5639C66.0987 45.0103 70.4332 46.7037 72.2975 47.8922C72.4607 47.9932 72.6005 48.0941 72.7248 48.1873L72.8801 48.2962C72.9734 48.3583 73.0821 48.436 73.2063 48.5059C74.7347 49.2868 76.3447 49.8963 78.007 50.3235C79.9752 50.9021 81.9934 51.2948 84.035 51.4965C85.3395 51.6983 86.6747 51.5006 87.8648 50.9295C88.8407 50.2742 89.5297 49.2713 89.7912 48.1253C89.7912 48.0709 89.7911 48.0164 89.8455 47.9542C89.9729 47.4695 89.968 46.9595 89.8314 46.4773C89.6948 45.995 89.4314 45.5582 89.0686 45.2123C88.9832 45.1346 88.9134 45.0491 88.828 44.9637C88.7425 44.8782 88.4707 44.6373 88.2687 44.4742C88.0667 44.311 87.6938 44.0547 87.3908 43.8605L87.0568 43.6663C86.95 43.5941 86.8384 43.5292 86.7229 43.4721C86.5054 43.34 86.2722 43.2235 86.0392 43.107C85.3556 42.7574 84.4389 42.3303 83.4601 41.9031C83.1339 41.7633 82.7998 41.6234 82.4814 41.4758L81.8212 41.1961C79.8792 40.3649 78.1469 39.6813 78.1469 39.6813L77.7896 39.8367L77.4012 40.0153L77.0593 40.1706L75.5601 40.8699L75.0939 41.103L74.2473 41.5069C73.4162 41.9109 72.4529 42.3924 71.3265 42.9594L70.8137 43.2158L69.7418 43.7673C69.2243 44.0341 68.6926 44.2726 68.1493 44.4819C63.3409 46.3929 61.3522 44.482 60.9017 43.5809C60.8828 43.5395 60.873 43.4945 60.873 43.4489C60.873 43.4034 60.8828 43.3582 60.9017 43.3167C61.2357 42.5399 63.6906 40.9863 66.5259 39.2463C68.5379 37.9646 70.7595 36.5664 72.5151 35.2614C77.0749 31.89 78.0769 33.4825 78.0769 33.4825C79.079 32.4415 81.254 32.0454 83.2815 31.9288C84.718 31.8427 86.1589 31.8609 87.5928 31.9833C92.5799 33.599 99.245 34.0962 100.69 33.9175C102.135 33.7388 107.541 37.3432 108.147 41.8176C108.45 44.0082 109.825 47.9466 111.153 51.3879C111.674 52.7162 112.179 53.9823 112.621 55.0388C113.352 56.8177 113.872 58.014 113.872 58.014L120.506 71.4217Z" fill="#89471E"/>
</g>
<g filter="url(#filter7_d_16948_22334)">
<path d="M106.623 20.0679L58.5234 49.7651L60.0071 52.4917L108.029 23.1518L106.623 20.0679Z" fill="url(#paint3_linear_16948_22334)"/>
</g>
<g filter="url(#filter8_d_16948_22334)">
<path d="M106.624 20.0675C107.074 19.8577 107.75 20.386 108.138 21.2327C108.527 22.0872 108.55 22.9339 108.069 23.1436C107.587 23.3533 106.903 22.8329 106.515 21.9784C106.127 21.1239 106.173 20.2772 106.624 20.0675Z" fill="#123141"/>
<path d="M55.9141 52.7323L58.5242 49.7648L60.0156 52.4914L55.9141 52.7323Z" fill="#123141"/>
</g>
<path d="M73.2141 48.4909C73.1009 48.4281 72.992 48.3581 72.8879 48.2812L72.7326 48.1723C72.6083 48.0791 72.4684 47.9782 72.3053 47.8772C70.441 46.6887 66.0907 45.0341 64.3973 46.5489L64.2575 46.6887C64.1741 46.772 64.1057 46.8692 64.0556 46.976C63.5662 47.9858 64.879 49.2287 65.9898 50.2774C66.2927 50.5571 66.5802 50.8289 66.8133 51.0542C67.0261 51.2589 67.1952 51.5048 67.3103 51.7768C67.3664 51.9987 67.4054 52.2246 67.427 52.4525C67.5901 53.7886 67.8542 55.9016 72.0878 57.2066L73.2452 48.4443L73.2141 48.4909Z" fill="#89471E"/>
<path fill-rule="evenodd" clip-rule="evenodd" d="M66.8054 51.0934C66.5724 50.8448 66.2849 50.5729 65.982 50.3166C64.8711 49.2679 63.5584 48.025 64.0477 47.0152C66.0597 46.7433 67.0929 48.3746 67.8075 48.9883C68.3902 49.4621 67.4036 50.5185 66.8054 51.0934Z" fill="#F39E78"/>
<defs>
<filter id="filter0_d_16948_22334" x="13.3379" y="16.5405" width="78.3213" height="56.8892" filterUnits="userSpaceOnUse" color-interpolation-filters="sRGB">
<feFlood flood-opacity="0" result="BackgroundImageFix"/>
<feColorMatrix in="SourceAlpha" type="matrix" values="0 0 0 0 0 0 0 0 0 0 0 0 0 0 0 0 0 0 127 0" result="hardAlpha"/>
<feOffset dx="1" dy="1"/>
<feGaussianBlur stdDeviation="0.5"/>
<feColorMatrix type="matrix" values="0 0 0 0 0 0 0 0 0 0 0 0 0 0 0 0 0 0 0.3 0"/>
<feBlend mode="normal" in2="BackgroundImageFix" result="effect1_dropShadow_16948_22334"/>
<feBlend mode="normal" in="SourceGraphic" in2="effect1_dropShadow_16948_22334" result="shape"/>
</filter>
<filter id="filter1_d_16948_22334" x="27.2969" y="42.3228" width="30.7109" height="13.0151" filterUnits="userSpaceOnUse" color-interpolation-filters="sRGB">
<feFlood flood-opacity="0" result="BackgroundImageFix"/>
<feColorMatrix in="SourceAlpha" type="matrix" values="0 0 0 0 0 0 0 0 0 0 0 0 0 0 0 0 0 0 127 0" result="hardAlpha"/>
<feOffset dx="1" dy="1"/>
<feGaussianBlur stdDeviation="0.5"/>
<feColorMatrix type="matrix" values="0 0 0 0 0 0 0 0 0 0 0 0 0 0 0 0 0 0 0.3 0"/>
<feBlend mode="normal" in2="BackgroundImageFix" result="effect1_dropShadow_16948_22334"/>
<feBlend mode="normal" in="SourceGraphic" in2="effect1_dropShadow_16948_22334" result="shape"/>
</filter>
<filter id="filter2_d_16948_22334" x="19.6846" y="23.4624" width="33.4141" height="17.3652" filterUnits="userSpaceOnUse" color-interpolation-filters="sRGB">
<feFlood flood-opacity="0" result="BackgroundImageFix"/>
<feColorMatrix in="SourceAlpha" type="matrix" values="0 0 0 0 0 0 0 0 0 0 0 0 0 0 0 0 0 0 127 0" result="hardAlpha"/>
<feOffset dx="1" dy="1"/>
<feGaussianBlur stdDeviation="0.5"/>
<feColorMatrix type="matrix" values="0 0 0 0 0 0 0 0 0 0 0 0 0 0 0 0 0 0 0.3 0"/>
<feBlend mode="normal" in2="BackgroundImageFix" result="effect1_dropShadow_16948_22334"/>
<feBlend mode="normal" in="SourceGraphic" in2="effect1_dropShadow_16948_22334" result="shape"/>
</filter>
<filter id="filter3_d_16948_22334" x="21.751" y="0.429688" width="29.2197" height="29.2192" filterUnits="userSpaceOnUse" color-interpolation-filters="sRGB">
<feFlood flood-opacity="0" result="BackgroundImageFix"/>
<feColorMatrix in="SourceAlpha" type="matrix" values="0 0 0 0 0 0 0 0 0 0 0 0 0 0 0 0 0 0 127 0" result="hardAlpha"/>
<feOffset dx="1" dy="1"/>
<feGaussianBlur stdDeviation="0.5"/>
<feColorMatrix type="matrix" values="0 0 0 0 0 0 0 0 0 0 0 0 0 0 0 0 0 0 0.3 0"/>
<feBlend mode="normal" in2="BackgroundImageFix" result="effect1_dropShadow_16948_22334"/>
<feBlend mode="normal" in="SourceGraphic" in2="effect1_dropShadow_16948_22334" result="shape"/>
</filter>
<filter id="filter4_i_16948_22334" x="27.7012" y="6.66797" width="15.4307" height="15.2983" filterUnits="userSpaceOnUse" color-interpolation-filters="sRGB">
<feFlood flood-opacity="0" result="BackgroundImageFix"/>
<feBlend mode="normal" in="SourceGraphic" in2="BackgroundImageFix" result="shape"/>
<feColorMatrix in="SourceAlpha" type="matrix" values="0 0 0 0 0 0 0 0 0 0 0 0 0 0 0 0 0 0 127 0" result="hardAlpha"/>
<feOffset dx="0.5" dy="0.5"/>
<feGaussianBlur stdDeviation="0.25"/>
<feComposite in2="hardAlpha" operator="arithmetic" k2="-1" k3="1"/>
<feColorMatrix type="matrix" values="0 0 0 0 0 0 0 0 0 0 0 0 0 0 0 0 0 0 0.3 0"/>
<feBlend mode="normal" in2="shape" result="effect1_innerShadow_16948_22334"/>
</filter>
<filter id="filter5_d_16948_22334" x="67.6904" y="39.6587" width="23.4316" height="14.3076" filterUnits="userSpaceOnUse" color-interpolation-filters="sRGB">
<feFlood flood-opacity="0" result="BackgroundImageFix"/>
<feColorMatrix in="SourceAlpha" type="matrix" values="0 0 0 0 0 0 0 0 0 0 0 0 0 0 0 0 0 0 127 0" result="hardAlpha"/>
<feOffset dx="1" dy="1"/>
<feGaussianBlur stdDeviation="0.5"/>
<feColorMatrix type="matrix" values="0 0 0 0 0 0 0 0 0 0 0 0 0 0 0 0 0 0 0.3 0"/>
<feBlend mode="normal" in2="BackgroundImageFix" result="effect1_dropShadow_16948_22334"/>
<feBlend mode="normal" in="SourceGraphic" in2="effect1_dropShadow_16948_22334" result="shape"/>
</filter>
<filter id="filter6_d_16948_22334" x="60.873" y="31.8755" width="61.6328" height="41.5464" filterUnits="userSpaceOnUse" color-interpolation-filters="sRGB">
<feFlood flood-opacity="0" result="BackgroundImageFix"/>
<feColorMatrix in="SourceAlpha" type="matrix" values="0 0 0 0 0 0 0 0 0 0 0 0 0 0 0 0 0 0 127 0" result="hardAlpha"/>
<feOffset dx="1" dy="1"/>
<feGaussianBlur stdDeviation="0.5"/>
<feColorMatrix type="matrix" values="0 0 0 0 0 0 0 0 0 0 0 0 0 0 0 0 0 0 0.3 0"/>
<feBlend mode="normal" in2="BackgroundImageFix" result="effect1_dropShadow_16948_22334"/>
<feBlend mode="normal" in="SourceGraphic" in2="effect1_dropShadow_16948_22334" result="shape"/>
</filter>
<filter id="filter7_d_16948_22334" x="58.5234" y="20.0679" width="51.5059" height="34.4238" filterUnits="userSpaceOnUse" color-interpolation-filters="sRGB">
<feFlood flood-opacity="0" result="BackgroundImageFix"/>
<feColorMatrix in="SourceAlpha" type="matrix" values="0 0 0 0 0 0 0 0 0 0 0 0 0 0 0 0 0 0 127 0" result="hardAlpha"/>
<feOffset dx="1" dy="1"/>
<feGaussianBlur stdDeviation="0.5"/>
<feColorMatrix type="matrix" values="0 0 0 0 0 0 0 0 0 0 0 0 0 0 0 0 0 0 0.3 0"/>
<feBlend mode="normal" in2="BackgroundImageFix" result="effect1_dropShadow_16948_22334"/>
<feBlend mode="normal" in="SourceGraphic" in2="effect1_dropShadow_16948_22334" result="shape"/>
</filter>
<filter id="filter8_d_16948_22334" x="55.9141" y="20.0215" width="54.5156" height="34.7109" filterUnits="userSpaceOnUse" color-interpolation-filters="sRGB">
<feFlood flood-opacity="0" result="BackgroundImageFix"/>
<feColorMatrix in="SourceAlpha" type="matrix" values="0 0 0 0 0 0 0 0 0 0 0 0 0 0 0 0 0 0 127 0" result="hardAlpha"/>
<feOffset dx="1" dy="1"/>
<feGaussianBlur stdDeviation="0.5"/>
<feColorMatrix type="matrix" values="0 0 0 0 0 0 0 0 0 0 0 0 0 0 0 0 0 0 0.3 0"/>
<feBlend mode="normal" in2="BackgroundImageFix" result="effect1_dropShadow_16948_22334"/>
<feBlend mode="normal" in="SourceGraphic" in2="effect1_dropShadow_16948_22334" result="shape"/>
</filter>
<linearGradient id="paint0_linear_16948_22334" x1="23.3764" y1="19.1398" x2="29.2361" y2="38.7511" gradientUnits="userSpaceOnUse">
<stop offset="0.250077" stop-color="#237EA3"/>
<stop offset="1" stop-color="#1D465C"/>
</linearGradient>
<linearGradient id="paint1_linear_16948_22334" x1="23.3764" y1="19.1398" x2="29.2361" y2="38.7511" gradientUnits="userSpaceOnUse">
<stop offset="0.250077" stop-color="#237EA3"/>
<stop offset="1" stop-color="#1D465C"/>
</linearGradient>
<linearGradient id="paint2_linear_16948_22334" x1="13.0663" y1="36.3336" x2="44.9308" y2="4.46906" gradientUnits="userSpaceOnUse">
<stop stop-color="#B4602B"/>
<stop offset="1" stop-color="#E5A667"/>
</linearGradient>
<linearGradient id="paint3_linear_16948_22334" x1="194447" y1="51996" x2="197813" y2="51260.3" gradientUnits="userSpaceOnUse">
<stop stop-color="#237EA3"/>
<stop offset="1" stop-color="#1D465C"/>
</linearGradient>
</defs>
</svg>
